<svg width="360" height="3046" viewBox="0 0 360 3046" fill="none" xmlns="http://www.w3.org/2000/svg">
<g clip-path="url(#clip0_551_181)">
<rect width="360" height="3046" fill="#1A1E48"/>
<rect x="204" y="34" width="235" height="235" rx="117.5" fill="white" fill-opacity="0.03"/>
<rect x="-76" y="903" width="316" height="331" rx="158" fill="white" fill-opacity="0.03"/>
<rect x="-125" y="246" width="334" height="334" rx="167" fill="white" fill-opacity="0.03"/>
<rect x="240" y="1280" width="334" height="334" rx="167" fill="white" fill-opacity="0.03"/>
<rect x="188" y="622" width="235" height="235" rx="117.5" fill="white" fill-opacity="0.03"/>
<rect x="-76" y="1585" width="235" height="235" rx="117.5" fill="white" fill-opacity="0.03"/>
<rect x="221" y="1820" width="235" height="235" rx="117.5" fill="white" fill-opacity="0.03"/>
<rect x="211" y="2397" width="235" height="235" rx="117.5" fill="white" fill-opacity="0.03"/>
<rect width="226" height="228" rx="113" transform="matrix(-1 0 0 1 150 2123)" fill="white" fill-opacity="0.03"/>
<rect width="226" height="228" rx="113" transform="matrix(-1 0 0 1 140 2610)" fill="white" fill-opacity="0.03"/>
<rect width="280" height="305.058" rx="140" transform="matrix(-1 0 0 1 437 2841)" fill="white" fill-opacity="0.03"/>
</g>
<defs>
<clipPath id="clip0_551_181">
<rect width="360" height="3046" fill="white"/>
</clipPath>
</defs>
</svg>
