<svg width="31" height="38" viewBox="0 0 31 38" fill="none" xmlns="http://www.w3.org/2000/svg">
<path d="M18.8906 0H12.1094C9.86585 0 8.01817 1.66197 7.77672 3.79894L4.35938 3.8C1.95176 3.8 0 5.71398 0 8.075V33.725C0 36.0859 1.95176 38 4.35938 38H26.6406C29.0482 38 31 36.0859 31 33.725V8.075C31 5.71398 29.0482 3.8 26.6406 3.8L23.2233 3.79894C22.9819 1.66197 21.1341 0 18.8906 0ZM12.1094 2.85H18.8906C19.6931 2.85 20.3438 3.488 20.3438 4.275C20.3438 5.062 19.6931 5.7 18.8906 5.7H12.1094C11.3068 5.7 10.6562 5.062 10.6562 4.275C10.6562 3.488 11.3068 2.85 12.1094 2.85ZM16.4688 15.675C16.4688 14.888 17.1194 14.25 17.9219 14.25H24.7031C25.5056 14.25 26.1562 14.888 26.1562 15.675C26.1562 16.462 25.5056 17.1 24.7031 17.1H17.9219C17.1194 17.1 16.4688 16.462 16.4688 15.675ZM17.9221 24.7H24.7029C25.5056 24.7 26.1561 25.338 26.1561 26.125C26.1561 26.912 25.5056 27.55 24.7029 27.55H17.9221C17.1194 27.55 16.4689 26.912 16.4689 26.125C16.4689 25.338 17.1194 24.7 17.9221 24.7ZM13.1368 14.7826L9.26189 18.5826C8.69441 19.1391 7.77433 19.1391 7.20686 18.5826L5.26936 16.6826C4.70189 16.1261 4.70189 15.2239 5.26936 14.6674C5.83683 14.1109 6.75692 14.1109 7.32439 14.6674L8.23438 15.5597L11.0819 12.7674C11.6494 12.2109 12.5693 12.2109 13.1368 12.7674C13.7043 13.3239 13.7043 14.2261 13.1368 14.7826ZM13.1368 23.2174C13.7043 23.7739 13.7043 24.6761 13.1368 25.2326L9.26189 29.0326C8.69441 29.5891 7.77433 29.5891 7.20686 29.0326L5.26936 27.1326C4.70189 26.5761 4.70189 25.6739 5.26936 25.1174C5.83683 24.5609 6.75692 24.5609 7.32439 25.1174L8.23438 26.0097L11.0819 23.2174C11.6494 22.6609 12.5693 22.6609 13.1368 23.2174Z" fill="white"/>
</svg>
