<svg width="31" height="31" viewBox="0 0 31 31" fill="none" xmlns="http://www.w3.org/2000/svg">
<path d="M17.6582 0C14.2981 0 11.3865 1.89563 9.95996 4.66297C13.5592 4.83569 16.7036 6.71857 18.5779 9.50632C19.2968 9.3709 20.0387 9.3 20.7975 9.3H26.256C26.2792 9.04475 26.2911 8.78624 26.2911 8.525V2.23341C26.2911 0.999936 25.2786 0 24.0295 0H17.6582ZM9.69377 24.7961C9.60207 24.7988 9.51006 24.8 9.41772 24.8C4.21646 24.8 0 20.6362 0 15.5V8.54614C0 7.2504 1.0637 6.2 2.37584 6.2H9.41772C12.5039 6.2 15.2435 7.66599 16.9612 9.93125C14.3752 10.811 12.197 12.5555 10.7808 14.8146L8.28794 12.353C7.8282 11.899 7.08283 11.899 6.62311 12.353C6.16337 12.807 6.16337 13.543 6.62311 13.997L9.70029 17.0357C9.26322 18.2517 9.02532 19.561 9.02532 20.925C9.02532 22.2822 9.26085 23.5851 9.69377 24.7961ZM10.5949 20.925C10.5949 15.3607 15.1627 10.85 20.7975 10.85H28.51C29.8853 10.85 31 11.9509 31 13.3089V20.925C31 26.4893 26.4322 31 20.7975 31C18.4043 31 16.2037 30.1864 14.4636 28.824L12.6047 30.6595C12.145 31.1135 11.3996 31.1135 10.9399 30.6595C10.4802 30.2055 10.4802 29.4695 10.9399 29.0155L12.7987 27.1799C11.419 25.4615 10.5949 23.2883 10.5949 20.925ZM15.5822 27.7193L22.8072 20.5845C23.267 20.1305 23.267 19.3945 22.8072 18.9405C22.3475 18.4865 21.6021 18.4865 21.1423 18.9405L13.9174 26.0752C14.3939 26.695 14.9544 27.2485 15.5822 27.7193Z" fill="white"/>
</svg>
