<svg width="95" height="95" viewBox="0 0 95 95" fill="none" xmlns="http://www.w3.org/2000/svg">
<g id="Group 24">
<ellipse id="Ellipse 16" cx="47.7649" cy="47.1916" rx="47.0588" ry="47.0588" fill="#3C3F62"/>
<path id="Vector" d="M49.9916 31.496L48.1808 33.2867L46.3642 31.4944C41.7326 26.9247 34.2234 26.9247 29.5918 31.4944C26.3452 34.6977 25.3744 39.2961 26.6794 43.3336C26.8565 43.309 27.0374 43.2964 27.2214 43.2964H34.3789L37.524 36.7635C38.1576 35.4475 39.4964 34.6032 40.9729 34.5885C42.4494 34.5738 43.8053 35.3912 44.4655 36.6943L48.7856 45.2187L52.2237 40.5215C52.9126 39.5805 53.9986 39.0006 55.174 38.9465C56.3491 38.8923 57.4853 39.3698 58.26 40.2434L60.9675 43.2964H69.1445C69.3303 43.2964 69.513 43.3095 69.692 43.3343C71.0002 39.2954 70.034 34.7024 66.7843 31.496C62.1442 26.918 54.6316 26.918 49.9916 31.496ZM47.0129 65.2313L32.5038 50.916H36.8196C38.3103 50.916 39.6679 50.0694 40.3075 48.7407L41.1009 47.0927L44.7294 54.2525C45.3333 55.4445 46.5246 56.2384 47.8707 56.3462C49.2171 56.454 50.5225 55.8596 51.3133 54.7794L55.6433 48.864L56.3094 49.615C57.0426 50.4419 58.102 50.916 59.2154 50.916H63.8706L49.3531 65.2313C48.7068 65.869 47.6591 65.869 47.0129 65.2313ZM40.994 36.7654C41.6272 36.7587 42.2089 37.109 42.4921 37.6679L48.4411 49.4073L54.0125 41.7962C54.3077 41.3928 54.7731 41.1444 55.2768 41.1211C55.7805 41.098 56.2675 41.3025 56.5994 41.6769L59.9662 45.4734H68.5929C69.5068 45.4734 70.2478 46.2045 70.2478 47.1062C70.2478 48.0079 69.5068 48.739 68.5929 48.739H59.2154C58.7381 48.739 58.2842 48.5357 57.97 48.1815L55.478 45.3716L49.5245 53.5047C49.1856 53.9678 48.6262 54.2225 48.0493 54.1761C47.4723 54.13 46.9617 53.7899 46.7029 53.279L41.0529 42.13L38.3312 47.8046C38.0575 48.3752 37.4751 48.739 36.8353 48.739H27.773C26.8591 48.739 26.1182 48.0079 26.1182 47.1062C26.1182 46.2045 26.8591 45.4734 27.773 45.4734H35.7877L39.5161 37.6997C39.787 37.1349 40.3608 36.7722 40.994 36.7654Z" fill="#FFFA8B"/>
</g>
</svg>
