<svg width="30" height="38" viewBox="0 0 30 38" fill="none" xmlns="http://www.w3.org/2000/svg">
<path d="M8.47831 3.16668V16.3363C8.47831 17.128 8.2832 17.907 7.91071 18.6026L5.43714 23.2224H24.0128L21.5393 18.6026C21.1668 17.907 20.9717 17.128 20.9717 16.3363V3.16668H23.0539C23.9164 3.16668 24.6156 2.45779 24.6156 1.58334C24.6156 0.708894 23.9164 0 23.0539 0H6.39613C5.53365 0 4.83446 0.708894 4.83446 1.58334C4.83446 2.45779 5.53365 3.16668 6.39613 3.16668H8.47831ZM25.7083 26.389H3.7416L0.446569 32.543C-0.871499 35.0047 0.886313 38 3.64901 38H25.801C28.5637 38 30.3215 35.0047 29.0034 32.543L25.7083 26.389Z" fill="white"/>
</svg>
