<svg width="95" height="95" viewBox="0 0 95 95" fill="none" xmlns="http://www.w3.org/2000/svg">
<g id="Group 24">
<ellipse id="Ellipse 16" cx="47.7649" cy="47.1916" rx="47.0588" ry="47.0588" fill="#3C3F62"/>
<path id="Vector" d="M55.7383 34.9442C55.2932 35.5209 55.4054 36.345 55.9889 36.7849C59.1571 39.173 61.0521 42.8731 61.0521 46.886C61.0521 53.4279 56.0458 58.8141 49.6132 59.5059L49.6221 59.4971C49.1577 59.5476 48.6859 59.5733 48.2081 59.5733C47.4479 59.5733 46.703 59.508 45.9791 59.3826L45.3891 59.9657C44.9173 60.4318 44.8745 61.1615 45.2605 61.6756L45.3891 61.8228L48.9324 65.3249C49.4513 65.8378 50.2926 65.8378 50.8115 65.3249C51.2832 64.8588 51.326 64.1291 50.9402 63.615L50.8115 63.4678L49.4823 62.1564C57.4475 61.5159 63.7095 54.9238 63.7095 46.886C63.7095 42.0449 61.4209 37.5762 57.6004 34.6964C57.017 34.2565 56.1831 34.3675 55.7383 34.9442ZM45.604 28.4471C45.0851 28.96 45.0851 29.7915 45.604 30.3044L46.9315 31.6157C38.9671 32.2573 32.7061 38.849 32.7061 46.886C32.7061 51.5166 34.7988 55.8117 38.3413 58.7039C38.907 59.1658 39.7445 59.087 40.2119 58.5278C40.6792 57.9687 40.5994 57.1408 40.0337 56.6789C37.096 54.2805 35.3635 50.7247 35.3635 46.886C35.3635 40.3448 40.3689 34.9591 46.8006 34.2664L46.7908 34.2761C47.2562 34.2256 47.7291 34.1996 48.2081 34.1996C48.968 34.1996 49.7124 34.2649 50.436 34.39L51.0264 33.8064C51.5454 33.2936 51.5454 32.4621 51.0264 31.9492L47.4832 28.4471C46.9643 27.9343 46.1229 27.9343 45.604 28.4471ZM58.8375 46.886C58.8375 52.6884 54.0784 57.3922 48.2078 57.3922C42.3371 57.3922 37.578 52.6884 37.578 46.886C37.578 41.0836 42.3371 36.3799 48.2078 36.3799C54.0784 36.3799 58.8375 41.0836 58.8375 46.886ZM53.5763 43.3309C53.0574 42.818 52.2163 42.818 51.6974 43.3309L46.4362 48.5308L44.7182 46.833C44.1994 46.3201 43.3581 46.3201 42.8392 46.833C42.3203 47.3459 42.3203 48.1773 42.8392 48.6901L45.4967 51.3167C46.0156 51.8296 46.8567 51.8296 47.3757 51.3167L53.5763 45.1881C54.0953 44.6752 54.0953 43.8438 53.5763 43.3309Z" fill="#FFFA8B"/>
</g>
</svg>
