<svg width="31" height="34" viewBox="0 0 31 34" fill="none" xmlns="http://www.w3.org/2000/svg">
<path d="M10.1974 0H15.9079C17.7971 0 19.3531 1.41621 19.5564 3.23719L22.4342 3.2381C24.4616 3.2381 26.1053 4.86906 26.1053 6.88095V15.378C24.8496 14.8583 23.4717 14.5714 22.0263 14.5714C16.1691 14.5714 11.4211 19.283 11.4211 25.0952C11.4211 27.9229 12.5449 30.4901 14.3736 32.381H3.67105C1.64359 32.381 0 30.7499 0 28.7381V6.88095C0 4.86906 1.64359 3.2381 3.67105 3.2381L6.54882 3.23719C6.75214 1.41621 8.30808 0 10.1974 0ZM15.9079 2.42857H10.1974C9.52155 2.42857 8.97368 2.97223 8.97368 3.64286C8.97368 4.31348 9.52155 4.85714 10.1974 4.85714H15.9079C16.5837 4.85714 17.1316 4.31348 17.1316 3.64286C17.1316 2.97223 16.5837 2.42857 15.9079 2.42857ZM31 25.0952C31 30.0133 26.9824 34 22.0263 34C17.0702 34 13.0526 30.0133 13.0526 25.0952C13.0526 20.1772 17.0702 16.1905 22.0263 16.1905C26.9824 16.1905 31 20.1772 31 25.0952ZM27.498 21.2846C27.1793 20.9686 26.6628 20.9686 26.3441 21.2846L20.3947 27.1885L17.7085 24.5227C17.3899 24.2067 16.8733 24.2067 16.5547 24.5227C16.2362 24.8389 16.2362 25.3515 16.5547 25.6677L19.8178 28.9058C20.1365 29.2219 20.653 29.2219 20.9717 28.9058L27.498 22.4296C27.8165 22.1134 27.8165 21.6008 27.498 21.2846Z" fill="white"/>
</svg>
