<svg width="95" height="95" viewBox="0 0 95 95" fill="none" xmlns="http://www.w3.org/2000/svg">
<g id="Group 24">
<ellipse id="Ellipse 16" cx="47.7649" cy="47.1916" rx="47.0588" ry="47.0588" fill="#3C3F62"/>
<path id="Vector" d="M62.2049 28.3694C63.1149 28.3295 63.9633 28.8228 64.3708 29.6285C65.3459 31.5569 66.5385 32.7154 67.4388 33.3816C67.8925 33.7172 68.2766 33.9312 68.5272 34.0546C68.6523 34.1162 68.7432 34.1548 68.7919 34.1744L68.8279 34.1884C70.0201 34.5948 70.6633 35.8753 70.2658 37.0626C69.8652 38.2588 68.5597 38.9074 67.35 38.5114L67.3456 38.5099L67.3408 38.5083L67.3304 38.5048L67.3052 38.4963L67.2402 38.4732C67.1903 38.455 67.1271 38.4312 67.0524 38.4011C66.9029 38.3409 66.7053 38.2553 66.47 38.1394C65.9995 37.9077 65.374 37.5532 64.674 37.0351C63.9675 36.5123 63.1892 35.8259 62.4208 34.9385C60.428 37.3221 57.6927 38.627 54.8083 38.6271C51.9785 38.6273 49.2919 37.3715 47.3094 35.0733C45.3267 37.3715 42.6403 38.6273 39.8105 38.6273C36.9264 38.6273 34.191 37.3228 32.1982 34.9397C31.4302 35.8273 30.6524 36.5142 29.9465 37.0377C29.2469 37.5565 28.622 37.9118 28.1519 38.1442C27.9167 38.2605 27.7195 38.3463 27.5701 38.4068C27.4954 38.437 27.4324 38.461 27.3826 38.4792L27.3176 38.5024L27.2927 38.5109L27.2822 38.5144L27.2774 38.516L27.2751 38.5168C26.0662 38.9153 24.7574 38.2699 24.3544 37.0744C23.9545 35.8881 24.5949 34.6065 25.7862 34.1976L25.8229 34.1832C25.8718 34.1635 25.963 34.1246 26.0884 34.0626C26.3394 33.9385 26.7239 33.7235 27.178 33.3868C28.0793 32.7185 29.2727 31.5579 30.248 29.6294C30.6554 28.8239 31.504 28.3307 32.414 28.3707C33.3239 28.4106 34.1249 28.9761 34.4586 29.8142C35.6705 32.8582 37.8882 34.064 39.8105 34.064C41.7328 34.064 43.9506 32.8582 45.1624 29.8142C45.5097 28.9419 46.3613 28.3684 47.3094 28.3684C48.2575 28.3684 49.1089 28.9419 49.4564 29.8142C50.6682 32.8582 52.886 34.064 54.808 34.0639C56.7303 34.0638 58.9481 32.8578 60.1601 29.8131C60.4938 28.975 61.2949 28.4093 62.2049 28.3694ZM62.2049 42.0593C63.1149 42.0194 63.9633 42.5126 64.3708 43.3183C65.3459 45.2468 66.5385 46.4051 67.4388 47.0714C67.8925 47.407 68.2766 47.621 68.5272 47.7445C68.6523 47.8061 68.7432 47.8446 68.7919 47.8643L68.8279 47.8782C70.0201 48.2848 70.6633 49.5652 70.2658 50.7524C69.8652 51.9486 68.5597 52.5973 67.35 52.2012L67.3456 52.1998L67.3408 52.1982L67.3304 52.1946L67.3052 52.1861L67.2402 52.1631C67.1903 52.1448 67.1271 52.1211 67.0524 52.091C66.9029 52.0308 66.7053 51.9452 66.47 51.8293C65.9995 51.5975 65.374 51.2429 64.674 50.725C63.9675 50.202 63.1892 49.5157 62.4208 48.6284C60.428 51.012 57.6927 52.3169 54.8083 52.3171C51.9785 52.3171 49.2919 51.0613 47.3094 48.7632C45.3267 51.0613 42.6403 52.3171 39.8105 52.3171C36.9264 52.3171 34.191 51.0127 32.1982 48.6295C31.4302 49.5171 30.6524 50.2041 29.9465 50.7275C29.2469 51.2463 28.622 51.6016 28.1519 51.8341C27.9167 51.9502 27.7195 52.0362 27.5701 52.0967C27.4954 52.1268 27.4324 52.1508 27.3826 52.169L27.3176 52.1923L27.2927 52.2007L27.2822 52.2042L27.2774 52.2058L27.2751 52.2067C26.0662 52.605 24.7574 51.9598 24.3544 50.7642C23.9545 49.578 24.5949 48.2964 25.7862 47.8875L25.8229 47.8732C25.8718 47.8533 25.963 47.8143 26.0884 47.7525C26.3394 47.6283 26.7239 47.4134 27.178 47.0766C28.0793 46.4083 29.2727 45.2477 30.248 43.3192C30.6554 42.5137 31.504 42.0205 32.414 42.0605C33.3239 42.1004 34.1249 42.666 34.4586 43.504C35.6705 46.548 37.8882 47.7538 39.8105 47.7538C41.7328 47.7538 43.9506 46.548 45.1624 43.504C45.5097 42.6317 46.3613 42.0582 47.3094 42.0582C48.2575 42.0582 49.1089 42.6317 49.4564 43.504C50.6682 46.548 52.886 47.7538 54.808 47.7538C56.7303 47.7536 58.9481 46.5475 60.1601 43.5029C60.4938 42.6648 61.2949 42.0992 62.2049 42.0593ZM64.3708 57.0082C63.9633 56.2025 63.1149 55.7092 62.2049 55.7491C61.2949 55.7891 60.4938 56.3547 60.1601 57.1927C58.9481 60.2374 56.7303 61.4434 54.808 61.4437C52.886 61.4437 50.6682 60.2378 49.4564 57.1939C49.1089 56.3216 48.2575 55.748 47.3094 55.748C46.3613 55.748 45.5097 56.3216 45.1624 57.1939C43.9506 60.2378 41.7328 61.4437 39.8105 61.4437C37.8882 61.4437 35.6705 60.2378 34.4586 57.1939C34.1249 56.3558 33.3239 55.7902 32.414 55.7503C31.504 55.7104 30.6554 56.2037 30.248 57.0091C29.2727 58.9375 28.0793 60.0982 27.178 60.7665C26.7239 61.1032 26.3394 61.3182 26.0884 61.4423C25.963 61.5041 25.8718 61.5431 25.8229 61.563L25.7862 61.5774C24.5949 61.9862 23.9545 63.2678 24.3544 64.4541C24.7574 65.6496 26.0662 66.2949 27.2751 65.8965L27.2774 65.8956L27.2822 65.894L27.2927 65.8906L27.3176 65.8821L27.3826 65.8589C27.4324 65.8406 27.4954 65.8167 27.5701 65.7865C27.7195 65.7261 27.9167 65.6401 28.1519 65.5239C28.622 65.2914 29.2469 64.9362 29.9465 64.4173C30.6524 63.8939 31.4302 63.2069 32.1982 62.3194C34.191 64.7025 36.9264 66.0069 39.8105 66.0069C42.6403 66.0069 45.3267 64.7511 47.3094 62.4531C49.2919 64.7511 51.9785 66.0069 54.8083 66.0069C57.6927 66.0067 60.428 64.7019 62.4208 62.3182C63.1892 63.2056 63.9675 63.8919 64.674 64.4148C65.374 64.9328 65.9995 65.2873 66.47 65.5191C66.7053 65.635 66.9029 65.7206 67.0524 65.7808C67.1271 65.811 67.1903 65.8347 67.2402 65.8529L67.3052 65.876L67.3304 65.8844L67.3408 65.8881L67.35 65.891C68.5597 66.2871 69.8652 65.6385 70.2658 64.4422C70.6633 63.2551 70.0201 61.9746 68.8279 61.568L68.7919 61.5541C68.7432 61.5345 68.6523 61.4959 68.5272 61.4343C68.2766 61.3109 67.8925 61.0969 67.4388 60.7612C66.5385 60.095 65.3459 58.9366 64.3708 57.0082Z" fill="#FFFA8B"/>
</g>
</svg>
