<svg width="1372" height="349" viewBox="0 0 1372 349" fill="none" xmlns="http://www.w3.org/2000/svg">
<mask id="mask0_557_123" style="mask-type:alpha" maskUnits="userSpaceOnUse" x="0" y="194" width="829" height="155">
<path d="M31.0716 241.463C31.6341 241.187 38.7587 239.191 42.1324 237.559C41.9341 235.731 41.7848 233.839 42.4533 232.256C43.4617 229.868 50.6747 228.731 54.217 227.833C61.5322 225.98 71.4602 221.61 74.7652 217.581C77.2718 214.526 74.7929 210.226 75.4527 206.927C76.0265 204.058 87.6588 201.374 92.0288 200.494C102.435 198.4 115.48 197.219 126.556 196.594C158.027 194.82 189.587 193.295 221.429 194.343C250.429 195.297 280.929 198.307 309.122 202.223C324.34 204.337 339.601 208.438 354.496 211.269C373.925 214.962 387.411 222.849 403.995 228.959C432.595 239.496 462.88 248.644 492.834 257.987C502.033 260.856 510.758 264.435 520.945 266.269C531.859 268.234 545.209 270.211 554.631 273.707C559.534 275.526 565.128 275.755 570.062 277.486C573.218 278.594 575.618 278.933 579.381 278.933C647.217 278.933 714.935 278.21 782.725 278.21C790.023 278.21 796.444 278.137 803.426 279.255C810.28 280.353 809.562 280.466 812.669 284.16C816.094 288.233 820.676 291.458 822.599 295.94C824.405 300.151 828.596 304.733 828.863 309.006C829.415 317.878 828.894 327.923 815.724 334.496C808.101 338.301 796.096 340.882 786.315 342.537C772.977 344.793 761 345.512 747.052 345.512C732.562 345.512 719.41 346.617 705.115 347.683C681.055 349.478 651.419 349.545 627.582 347.241C609.75 345.517 590.552 343.983 573.576 340.446C524.358 330.192 480.727 315.084 435.62 300.644C411.941 293.064 388.266 287.971 362.441 282.873C328.324 276.14 296.184 266.934 261.838 260.52C217.889 252.312 172.979 254.726 130.375 263.696C116.02 266.718 103.505 271.232 88.3622 273.305C69.8601 275.837 49.7396 276.762 30.6132 276.762C22.3436 276.762 14.7588 275.348 7.23865 274.028C-4.30525 272.003 0.41504 260.344 4.64148 256.097C7.81479 252.909 12.7949 248.991 17.6274 246.448C21.4737 244.424 27.0081 243.454 31.0716 241.463Z" fill="#D9D9D9"/>
</mask>
<g mask="url(#mask0_557_123)">
<path fill-rule="evenodd" clip-rule="evenodd" d="M470.765 129.64C464.051 129.983 453.679 130.792 447.717 131.437C426.925 133.687 386.584 140.117 388.018 140.953C388.341 141.141 398.442 140.813 410.466 140.224C442.107 138.676 462.053 139.964 489.824 145.352C511.634 149.583 531.903 156.319 585.885 177.274C663.823 207.528 692.311 216.518 726.056 221.507C747.588 224.69 774.872 224.537 804.067 221.07C837.608 217.086 872.947 207.559 896.443 196.166C901.908 193.516 902.28 193.154 900.112 192.591C898.275 192.113 892.363 193.462 875.344 198.24C848.53 205.768 835.753 208.364 819.912 209.501C784.203 212.064 737.321 202.037 679.815 179.538C670.222 175.785 652.002 168.649 639.325 163.681C600.257 148.369 574.234 139.884 552.866 135.489C528.927 130.565 497.052 128.294 470.765 129.64ZM145.769 133.273C85.131 137.397 30.036 153.647 -17.8468 181.53C-73.1698 213.747 -98.9053 251.754 -93.4086 293.122C-91.7516 305.591 -89.0681 313.894 -83.2425 324.576C-52.1674 381.566 58.2469 422.032 183.969 422.508C205.813 422.591 211.574 422.35 230.688 420.555C327.693 411.443 385.03 399.653 437.517 378.026C448.682 373.425 452.239 371.089 442.777 374.57C432.78 378.248 401.478 387.407 384.55 391.607C336.843 403.443 283.884 411.525 233.803 414.613C213.475 415.867 169.881 416.041 152.463 414.938C87.7622 410.844 28.4662 394.436 -16.6222 368.151C-58.4589 343.761 -77.7645 315.388 -75.4211 281.735C-74.6399 270.53 -72.4871 262.395 -67.8239 253.044C-49.0939 215.475 6.00859 182.043 75.8993 165.843C90.4208 162.476 114.043 158.907 133.863 157.083C157.38 154.919 197.415 154.76 216.361 156.755C275.743 163.007 334.375 176.326 434.384 206.278C570.11 246.928 616.651 259.203 658.417 265.366C689.174 269.905 702.666 270.828 738.37 270.836C766.418 270.843 770.798 270.676 782.397 269.162C814.075 265.028 846.822 257.624 865.642 250.341C869.323 248.916 872.167 247.652 871.962 247.533C871.758 247.413 864.04 248.455 854.813 249.848C816.925 255.57 782.677 258.036 759.529 256.71C700.475 253.328 617.979 234.839 501.659 198.916C462.14 186.711 408.861 171.198 385.796 165.18C323.429 148.906 269.107 138.46 229.442 135.113C202.653 132.853 164.336 132.01 145.769 133.273ZM195.507 217.484C169.61 219.218 142.689 222.926 119.01 228.02C102.342 231.607 67.3378 241.748 50.874 247.762L37.379 252.69L42.1605 252.905C45.7211 253.065 49.962 252.3 58.7689 249.911C105.671 237.185 157.542 230.403 199.542 231.506C261.786 233.141 313.367 244.447 418.811 279.565C497.7 305.84 550.591 319.076 606.933 326.641C656.669 333.319 689.691 333.536 726.22 327.425C745.073 324.273 767.619 319.159 786.335 313.793C804.249 308.657 804.356 308.611 799.151 308.385C795.446 308.225 790.381 308.926 781.936 310.77C754.759 316.702 731.885 319.119 702.863 319.126C673.549 319.132 646.443 316.187 610.554 309.097C564.056 299.911 528.571 289.895 443.728 262.007C402.057 248.31 377.791 241.12 351.319 234.626C315.549 225.85 287.661 220.999 259.342 218.625C242.953 217.251 208.248 216.631 195.507 217.484Z" fill="#3BA3C3"/>
</g>
<mask id="mask1_557_123" style="mask-type:alpha" maskUnits="userSpaceOnUse" x="529" y="194" width="829" height="155">
<path d="M560.072 241.463C560.634 241.187 567.759 239.191 571.132 237.559C570.934 235.731 570.785 233.839 571.453 232.256C572.462 229.868 579.675 228.731 583.217 227.833C590.532 225.98 600.46 221.61 603.765 217.581C606.272 214.526 603.793 210.226 604.453 206.927C605.026 204.058 616.659 201.374 621.029 200.494C631.435 198.4 644.48 197.219 655.556 196.594C687.027 194.82 718.587 193.295 750.429 194.343C779.429 195.297 809.929 198.307 838.122 202.223C853.34 204.337 868.601 208.438 883.496 211.269C902.925 214.962 916.411 222.849 932.995 228.959C961.595 239.496 991.88 248.644 1021.83 257.987C1031.03 260.856 1039.76 264.435 1049.94 266.269C1060.86 268.234 1074.21 270.211 1083.63 273.707C1088.53 275.526 1094.13 275.755 1099.06 277.486C1102.22 278.594 1104.62 278.933 1108.38 278.933C1176.22 278.933 1243.94 278.21 1311.72 278.21C1319.02 278.21 1325.44 278.137 1332.43 279.255C1339.28 280.353 1338.56 280.466 1341.67 284.16C1345.09 288.233 1349.68 291.458 1351.6 295.94C1353.41 300.151 1357.6 304.733 1357.86 309.006C1358.42 317.878 1357.89 327.923 1344.72 334.496C1337.1 338.301 1325.1 340.882 1315.31 342.537C1301.98 344.793 1290 345.512 1276.05 345.512C1261.56 345.512 1248.41 346.617 1234.11 347.683C1210.05 349.478 1180.42 349.545 1156.58 347.241C1138.75 345.517 1119.55 343.983 1102.58 340.446C1053.36 330.192 1009.73 315.084 964.62 300.644C940.941 293.064 917.266 287.971 891.441 282.873C857.324 276.14 825.184 266.934 790.838 260.52C746.889 252.312 701.979 254.726 659.375 263.696C645.02 266.718 632.505 271.232 617.362 273.305C598.86 275.837 578.74 276.762 559.613 276.762C551.344 276.762 543.759 275.348 536.239 274.028C524.695 272.003 529.415 260.344 533.641 256.097C536.815 252.909 541.795 248.991 546.627 246.448C550.474 244.424 556.008 243.454 560.072 241.463Z" fill="#D9D9D9"/>
</mask>
<g mask="url(#mask1_557_123)">
<path fill-rule="evenodd" clip-rule="evenodd" d="M999.765 129.64C993.051 129.983 982.679 130.792 976.717 131.437C955.925 133.687 915.584 140.117 917.018 140.953C917.341 141.141 927.442 140.813 939.466 140.224C971.107 138.676 991.053 139.964 1018.82 145.352C1040.63 149.583 1060.9 156.319 1114.88 177.274C1192.82 207.528 1221.31 216.518 1255.06 221.507C1276.59 224.69 1303.87 224.537 1333.07 221.07C1366.61 217.086 1401.95 207.559 1425.44 196.166C1430.91 193.516 1431.28 193.154 1429.11 192.591C1427.28 192.113 1421.36 193.462 1404.34 198.24C1377.53 205.768 1364.75 208.364 1348.91 209.501C1313.2 212.064 1266.32 202.037 1208.82 179.538C1199.22 175.785 1181 168.649 1168.33 163.681C1129.26 148.369 1103.23 139.884 1081.87 135.489C1057.93 130.565 1026.05 128.294 999.765 129.64ZM674.769 133.273C614.131 137.397 559.036 153.647 511.153 181.53C455.83 213.747 430.095 251.754 435.591 293.122C437.248 305.591 439.932 313.894 445.758 324.576C476.833 381.566 587.247 422.032 712.969 422.508C734.813 422.591 740.574 422.35 759.688 420.555C856.693 411.443 914.03 399.653 966.517 378.026C977.682 373.425 981.239 371.089 971.777 374.57C961.78 378.248 930.478 387.407 913.55 391.607C865.843 403.443 812.884 411.525 762.803 414.613C742.475 415.867 698.881 416.041 681.463 414.938C616.762 410.844 557.466 394.436 512.378 368.151C470.541 343.761 451.235 315.388 453.579 281.735C454.36 270.53 456.513 262.395 461.176 253.044C479.906 215.475 535.009 182.043 604.899 165.843C619.421 162.476 643.043 158.907 662.863 157.083C686.38 154.919 726.415 154.76 745.361 156.755C804.743 163.007 863.375 176.326 963.384 206.278C1099.11 246.928 1145.65 259.203 1187.42 265.366C1218.17 269.905 1231.67 270.828 1267.37 270.836C1295.42 270.843 1299.8 270.676 1311.4 269.162C1343.07 265.028 1375.82 257.624 1394.64 250.341C1398.32 248.916 1401.17 247.652 1400.96 247.533C1400.76 247.413 1393.04 248.455 1383.81 249.848C1345.93 255.57 1311.68 258.036 1288.53 256.71C1229.48 253.328 1146.98 234.839 1030.66 198.916C991.14 186.711 937.861 171.198 914.796 165.18C852.429 148.906 798.107 138.46 758.442 135.113C731.653 132.853 693.336 132.01 674.769 133.273ZM724.507 217.484C698.61 219.218 671.689 222.926 648.01 228.02C631.342 231.607 596.338 241.748 579.874 247.762L566.379 252.69L571.161 252.905C574.721 253.065 578.962 252.3 587.769 249.911C634.671 237.185 686.542 230.403 728.542 231.506C790.786 233.141 842.367 244.447 947.811 279.565C1026.7 305.84 1079.59 319.076 1135.93 326.641C1185.67 333.319 1218.69 333.536 1255.22 327.425C1274.07 324.273 1296.62 319.159 1315.33 313.793C1333.25 308.657 1333.36 308.611 1328.15 308.385C1324.45 308.225 1319.38 308.926 1310.94 310.77C1283.76 316.702 1260.89 319.119 1231.86 319.126C1202.55 319.132 1175.44 316.187 1139.55 309.097C1093.06 299.911 1057.57 289.895 972.728 262.007C931.057 248.31 906.791 241.12 880.319 234.626C844.549 225.85 816.661 220.999 788.342 218.625C771.953 217.251 737.248 216.631 724.507 217.484Z" fill="url(#paint0_linear_557_123)"/>
</g>
<mask id="mask2_557_123" style="mask-type:alpha" maskUnits="userSpaceOnUse" x="519" y="0" width="829" height="155">
<path d="M550.072 47.4627C550.634 47.187 557.759 45.191 561.132 43.5585C560.934 41.7312 560.785 39.8392 561.453 38.2558C562.462 35.8676 569.675 34.731 573.217 33.8333C580.532 31.9795 590.46 27.6096 593.765 23.5812C596.272 20.526 593.793 16.2258 594.453 12.927C595.026 10.058 606.659 7.37364 611.029 6.49422C621.435 4.40003 634.48 3.21897 645.556 2.59438C677.027 0.819685 708.587 -0.704537 740.429 0.342924C769.429 1.29689 799.929 4.3073 828.122 8.22302C843.34 10.3367 858.601 14.4381 873.496 17.269C892.925 20.9616 906.411 28.849 922.995 34.9591C951.595 45.496 981.88 54.6443 1011.83 63.9868C1021.03 66.8559 1029.76 70.4346 1039.94 72.2689C1050.86 74.234 1064.21 76.2108 1073.63 79.7067C1078.53 81.5257 1084.13 81.7548 1089.06 83.486C1092.22 84.5936 1094.62 84.9333 1098.38 84.9333C1166.22 84.9333 1233.94 84.2097 1301.72 84.2097C1309.02 84.2097 1315.44 84.1366 1322.43 85.255C1329.28 86.3529 1328.56 86.4659 1331.67 90.1599C1335.09 94.2329 1339.68 97.4584 1341.6 101.94C1343.41 106.151 1347.6 110.733 1347.86 115.006C1348.42 123.878 1347.89 133.923 1334.72 140.496C1327.1 144.301 1315.1 146.882 1305.31 148.537C1291.98 150.793 1280 151.512 1266.05 151.512C1251.56 151.512 1238.41 152.617 1224.11 153.683C1200.05 155.478 1170.42 155.545 1146.58 153.241C1128.75 151.517 1109.55 149.983 1092.58 146.446C1043.36 136.192 999.727 121.084 954.62 106.644C930.941 99.0635 907.266 93.9705 881.441 88.8734C847.324 82.1397 815.184 72.934 780.838 66.5196C736.889 58.3117 691.979 60.7264 649.375 69.6958C635.02 72.7181 622.505 77.2325 607.362 79.3047C588.86 81.8366 568.74 82.7623 549.613 82.7623C541.344 82.7623 533.759 81.3477 526.239 80.0284C514.695 78.0031 519.415 66.3439 523.641 62.0971C526.815 58.9086 531.795 54.9915 536.627 52.448C540.474 50.4236 546.008 49.4539 550.072 47.4627Z" fill="#D9D9D9"/>
</mask>
<g mask="url(#mask2_557_123)">
<path fill-rule="evenodd" clip-rule="evenodd" d="M989.765 -64.3603C983.051 -64.0168 972.679 -63.2079 966.717 -62.5631C945.925 -60.3129 905.584 -53.8831 907.018 -53.0473C907.341 -52.8592 917.442 -53.1867 929.466 -53.7756C961.107 -55.3244 981.053 -54.0356 1008.82 -48.6477C1030.63 -44.4166 1050.9 -37.6811 1104.88 -16.726C1182.82 13.5278 1211.31 22.5179 1245.06 27.507C1266.59 30.6903 1293.87 30.5371 1323.07 27.0699C1356.61 23.0857 1391.95 13.559 1415.44 2.16617C1420.91 -0.484171 1421.28 -0.845783 1419.11 -1.40925C1417.28 -1.88704 1411.36 -0.537913 1394.34 4.23996C1367.53 11.7684 1354.75 14.3635 1338.91 15.5006C1303.2 18.0638 1256.32 8.03684 1198.82 -14.462C1189.22 -18.2153 1171 -25.3509 1158.33 -30.319C1119.26 -45.6307 1093.23 -54.1162 1071.87 -58.5114C1047.93 -63.4352 1016.05 -65.7058 989.765 -64.3603ZM664.769 -60.7275C604.131 -56.6031 549.036 -40.3533 501.153 -12.4695C445.83 19.747 420.095 57.7543 425.591 99.1221C427.248 111.591 429.932 119.894 435.758 130.576C466.833 187.566 577.247 228.032 702.969 228.508C724.813 228.591 730.574 228.35 749.688 226.555C846.693 217.443 904.03 205.653 956.517 184.026C967.682 179.425 971.239 177.089 961.777 180.57C951.78 184.248 920.478 193.407 903.55 197.607C855.843 209.443 802.884 217.525 752.803 220.613C732.475 221.867 688.881 222.041 671.463 220.938C606.762 216.844 547.466 200.436 502.378 174.151C460.541 149.761 441.235 121.388 443.579 87.7351C444.36 76.5303 446.513 68.3949 451.176 59.0439C469.906 21.4752 525.009 -11.9569 594.899 -28.1574C609.421 -31.5236 633.043 -35.0933 652.863 -36.9173C676.38 -39.0811 716.415 -39.2401 735.361 -37.2455C794.743 -30.9929 853.375 -17.6744 953.384 12.2781C1089.11 52.9278 1135.65 65.2029 1177.42 71.3662C1208.17 75.9051 1221.67 76.828 1257.37 76.836C1285.42 76.8426 1289.8 76.6763 1301.4 75.1623C1333.07 71.0278 1365.82 63.6235 1384.64 56.3406C1388.32 54.9159 1391.17 53.6525 1390.96 53.5326C1390.76 53.4128 1383.04 54.4548 1373.81 55.8482C1335.93 61.5701 1301.68 64.036 1278.53 62.7101C1219.48 59.3278 1136.98 40.8386 1020.66 4.91597C981.14 -7.28866 927.861 -22.8022 904.796 -28.8203C842.429 -45.0941 788.107 -55.5401 748.442 -58.8868C721.653 -61.1472 683.336 -61.9902 664.769 -60.7275ZM714.507 23.4843C688.61 25.2176 661.689 28.9259 638.01 34.0203C621.342 37.6066 586.338 47.7484 569.874 53.7621L556.379 58.6903L561.161 58.9052C564.721 59.065 568.962 58.3003 577.769 55.9107C624.671 43.1847 676.542 36.4027 718.542 37.5064C780.786 39.1409 832.367 50.4466 937.811 85.5654C1016.7 111.84 1069.59 125.076 1125.93 132.641C1175.67 139.319 1208.69 139.536 1245.22 133.425C1264.07 130.273 1286.62 125.159 1305.33 119.793C1323.25 114.657 1323.36 114.611 1318.15 114.385C1314.45 114.225 1309.38 114.926 1300.94 116.77C1273.76 122.702 1250.89 125.119 1221.86 125.126C1192.55 125.132 1165.44 122.187 1129.55 115.097C1083.06 105.911 1047.57 95.8952 962.728 68.0071C921.057 54.3103 896.791 47.1203 870.319 40.6259C834.549 31.85 806.661 26.9988 778.342 24.6251C761.953 23.2512 727.248 22.6311 714.507 23.4843Z" fill="#EAD946"/>
</g>
<mask id="mask3_557_123" style="mask-type:alpha" maskUnits="userSpaceOnUse" x="520" y="141" width="817" height="154">
<path d="M550.684 240.364C551.231 240.665 558.188 242.916 561.466 244.702C561.227 246.612 561.035 248.591 561.654 250.265C562.589 252.789 569.653 254.142 573.115 255.162C580.263 257.268 589.919 262.069 593.073 266.363C595.464 269.62 592.924 274.07 593.494 277.54C593.989 280.559 605.362 283.632 609.638 284.652C619.819 287.079 632.617 288.609 643.491 289.512C674.391 292.077 705.384 294.382 736.717 293.999C765.253 293.65 795.312 291.18 823.125 287.71C838.138 285.837 853.24 281.883 867.953 279.251C887.143 275.819 900.591 267.858 917.043 261.829C945.414 251.432 975.409 242.527 1005.08 233.411C1014.2 230.612 1022.86 227.058 1032.92 225.365C1043.7 223.551 1056.87 221.78 1066.22 218.329C1071.08 216.533 1076.59 216.419 1081.48 214.716C1084.61 213.626 1086.98 213.324 1090.68 213.408C1157.37 214.93 1223.94 217.207 1290.59 218.728C1297.76 218.892 1304.07 219.112 1310.96 218.097C1317.73 217.101 1317.03 216.966 1320.17 213.166C1323.63 208.976 1328.22 205.7 1330.21 201.048C1332.09 196.677 1336.32 191.97 1336.68 187.499C1337.44 178.217 1337.17 167.682 1324.38 160.5C1316.97 156.343 1305.23 153.37 1295.65 151.417C1282.59 148.754 1270.83 147.732 1257.12 147.419C1242.87 147.094 1229.97 145.642 1215.94 144.204C1192.33 141.784 1163.19 141.048 1139.7 142.928C1122.13 144.334 1103.21 145.51 1086.44 148.835C1037.8 158.473 994.543 173.322 949.849 187.438C926.388 194.849 902.988 199.653 877.475 204.414C843.77 210.703 811.95 219.626 778.029 225.576C734.622 233.189 690.524 229.652 648.851 219.299C634.809 215.811 622.612 210.801 607.773 208.29C589.642 205.222 569.882 203.801 551.077 203.372C542.946 203.187 535.455 204.498 528.03 205.712C516.632 207.575 520.994 219.895 525.048 224.439C528.092 227.851 532.894 232.066 537.585 234.839C541.318 237.046 546.736 238.187 550.684 240.364Z" fill="#D9D9D9"/>
</mask>
<g mask="url(#mask3_557_123)">
<path fill-rule="evenodd" clip-rule="evenodd" d="M980.316 367.374C973.723 366.864 963.545 365.784 957.698 364.974C937.31 362.15 897.801 354.509 899.231 353.666C899.552 353.476 909.476 354.046 921.284 354.932C952.356 357.265 971.997 356.362 999.431 351.341C1020.98 347.397 1041.07 340.795 1094.64 320.053C1171.99 290.106 1200.22 281.327 1233.51 276.857C1254.76 274.005 1281.58 274.778 1310.2 279.065C1343.09 283.991 1377.6 294.765 1400.43 307.228C1405.74 310.127 1406.1 310.514 1403.95 311.056C1402.14 311.515 1396.36 309.969 1379.74 304.582C1353.55 296.093 1341.05 293.088 1325.51 291.541C1290.46 288.055 1244.12 297.508 1187.05 319.788C1177.53 323.505 1159.44 330.572 1146.86 335.492C1108.08 350.657 1082.29 358.963 1061.18 363.088C1037.52 367.71 1006.13 369.373 980.316 367.374ZM660.868 356.277C601.348 350.596 547.567 332.336 501.155 302.05C447.532 267.057 423.137 226.662 429.53 183.447C431.458 170.421 434.294 161.783 440.278 150.722C472.193 91.7138 581.719 51.797 705.34 54.119C726.819 54.5224 732.478 54.9042 751.227 57.2134C846.385 68.9358 902.476 82.573 953.564 106.408C964.432 111.479 967.873 114.006 958.653 110.147C948.913 106.069 918.356 95.7722 901.812 90.9925C855.189 77.5218 803.314 67.867 754.148 63.5082C734.192 61.7385 691.334 60.5779 674.182 61.3427C610.471 64.1809 551.779 80.0406 506.82 106.566C465.103 131.179 445.444 160.471 446.943 195.78C447.444 207.536 449.366 216.107 453.727 226.008C471.244 265.787 524.622 302.048 592.951 320.588C607.148 324.441 630.288 328.71 649.732 331.066C672.801 333.86 712.16 334.925 730.835 333.26C789.369 328.042 847.334 315.404 946.378 286.268C1080.8 246.727 1126.85 234.911 1168.06 229.391C1198.41 225.326 1211.7 224.662 1246.8 225.454C1274.38 226.076 1278.68 226.349 1290.05 228.195C1321.09 233.237 1353.11 241.729 1371.44 249.781C1375.03 251.356 1377.8 252.744 1377.59 252.865C1377.39 252.986 1369.82 251.721 1360.78 250.054C1323.67 243.21 1290.06 239.858 1267.27 240.728C1209.12 242.946 1127.57 260.466 1012.35 295.49C973.2 307.39 920.446 322.447 897.624 328.235C835.916 343.885 782.258 353.61 743.179 356.226C716.786 357.993 679.092 358.017 660.868 356.277ZM711.783 269.169C686.363 266.773 659.983 262.284 636.824 256.415C620.522 252.284 586.348 240.874 570.304 234.205L557.154 228.739L561.86 228.621C565.365 228.533 569.516 229.43 578.118 232.131C623.928 246.515 674.765 254.784 716.086 254.57C777.322 254.254 828.308 243.567 932.819 209.14C1011.01 183.383 1063.33 170.704 1118.91 164.042C1167.97 158.162 1200.44 158.675 1236.21 165.896C1254.67 169.622 1276.71 175.485 1294.99 181.527C1312.48 187.309 1312.58 187.36 1307.46 187.48C1303.81 187.565 1298.85 186.716 1290.59 184.595C1264.01 177.771 1241.58 174.725 1213.04 174.067C1184.22 173.403 1157.5 175.88 1122.05 182.502C1076.11 191.083 1040.98 200.78 956.897 228.094C915.599 241.508 891.57 248.497 865.387 254.707C830.008 263.098 802.472 267.555 774.573 269.406C758.427 270.478 724.29 270.349 711.783 269.169Z" fill="#5C87AE"/>
</g>
<mask id="mask4_557_123" style="mask-type:alpha" maskUnits="userSpaceOnUse" x="422" y="46" width="949" height="177">
<path d="M456.816 160.598C457.451 160.947 465.536 163.555 469.346 165.625C469.069 167.837 468.846 170.13 469.566 172.069C470.652 174.993 478.862 176.561 482.884 177.743C491.191 180.183 502.413 185.746 506.078 190.721C508.857 194.494 505.906 199.648 506.569 203.669C507.145 207.166 520.361 210.727 525.33 211.908C537.162 214.721 552.034 216.495 564.672 217.541C600.581 220.516 636.598 223.188 673.01 222.747C706.171 222.345 741.103 219.487 773.424 215.47C790.87 213.301 808.421 208.721 825.518 205.674C847.818 201.699 863.446 192.478 882.564 185.495C915.534 173.453 950.39 163.139 984.873 152.582C995.463 149.34 1005.53 145.224 1017.22 143.263C1029.75 141.163 1045.05 139.112 1055.92 135.115C1061.57 133.035 1067.97 132.903 1073.65 130.93C1077.29 129.668 1080.04 129.319 1084.34 129.417C1161.85 131.185 1239.2 133.829 1316.66 135.596C1324.99 135.786 1332.33 136.042 1340.34 134.867C1348.2 133.713 1347.38 133.557 1351.03 129.155C1355.06 124.301 1360.39 120.506 1362.71 115.118C1364.89 110.054 1369.8 104.602 1370.23 99.4229C1371.1 88.6699 1370.78 76.4656 1355.92 68.1451C1347.31 63.3288 1333.67 59.8828 1322.54 57.6197C1307.36 54.5335 1293.7 53.3489 1277.76 52.9853C1261.2 52.6076 1246.21 50.924 1229.9 49.2572C1202.46 46.4517 1168.6 45.5973 1141.3 47.7726C1120.88 49.3998 1098.9 50.7611 1079.41 54.6108C1022.89 65.7722 972.621 82.9708 920.683 99.3202C893.418 107.903 866.226 113.466 836.578 118.979C797.41 126.262 760.432 136.597 721.013 143.486C670.57 152.302 619.324 148.2 570.894 136.204C554.575 132.162 540.401 126.357 523.157 123.447C502.087 119.892 479.123 118.244 457.27 117.745C447.821 117.53 439.116 119.049 430.487 120.454C417.241 122.611 422.311 136.884 427.023 142.148C430.56 146.101 436.142 150.984 441.593 154.197C445.932 156.754 452.228 158.076 456.816 160.598Z" fill="#D9D9D9"/>
</mask>
<g mask="url(#mask4_557_123)">
<path fill-rule="evenodd" clip-rule="evenodd" d="M956.104 307.771C948.442 307.179 936.614 305.927 929.819 304.989C906.125 301.716 860.211 292.861 861.872 291.884C862.246 291.664 873.779 292.325 887.5 293.353C923.61 296.058 946.435 295.014 978.315 289.199C1003.35 284.632 1026.7 276.986 1088.96 252.962C1178.84 218.276 1211.64 208.108 1250.34 202.933C1275.03 199.631 1306.2 200.528 1339.46 205.497C1377.67 211.207 1417.79 223.69 1444.32 238.13C1450.49 241.489 1450.9 241.937 1448.41 242.564C1446.3 243.096 1439.58 241.305 1420.27 235.063C1389.84 225.227 1375.31 221.744 1357.24 219.951C1316.51 215.909 1262.67 226.856 1196.34 252.663C1185.28 256.968 1164.26 265.153 1149.64 270.852C1104.58 288.416 1074.61 298.036 1050.07 302.813C1022.58 308.165 986.102 310.089 956.104 307.771ZM584.871 294.89C515.701 288.303 453.201 267.146 399.263 232.057C336.945 191.515 308.592 144.717 316.018 94.6548C318.257 79.5652 321.553 69.559 328.505 56.7459C365.589 -11.6095 492.866 -57.8421 636.526 -55.1417C661.488 -54.6727 668.064 -54.23 689.853 -51.5532C800.437 -37.9655 865.621 -22.1628 924.993 5.45346C937.623 11.3281 941.622 14.2567 930.908 9.78531C919.587 5.0603 884.076 -6.87089 864.85 -12.4094C810.669 -28.0183 750.384 -39.2072 693.247 -44.2608C670.056 -46.3126 620.251 -47.6606 600.319 -46.7761C526.28 -43.4935 458.075 -25.1258 405.83 5.59904C357.353 34.1086 334.509 68.04 336.255 108.943C336.837 122.562 339.072 132.492 344.141 143.962C364.501 190.045 426.534 232.056 505.941 253.54C522.44 258.004 549.332 262.952 571.927 265.682C598.737 268.922 644.476 270.158 666.178 268.231C734.2 262.191 801.56 247.556 916.657 213.811C1072.86 168.016 1126.38 154.332 1174.27 147.94C1209.54 143.234 1224.98 142.465 1265.77 143.386C1297.82 144.11 1302.82 144.426 1316.03 146.565C1352.11 152.409 1389.32 162.249 1410.62 171.578C1414.79 173.403 1418.01 175.011 1417.77 175.151C1417.53 175.291 1408.74 173.825 1398.24 171.894C1355.11 163.962 1316.04 160.076 1289.56 161.082C1221.99 163.647 1127.22 183.936 993.321 224.5C947.829 238.282 886.525 255.721 860.004 262.423C788.294 280.548 725.938 291.809 680.525 294.837C649.853 296.882 606.05 296.906 584.871 294.89ZM644.032 193.984C614.492 191.205 583.834 186.003 556.921 179.203C537.976 174.416 498.261 161.195 479.616 153.467L464.334 147.134L469.803 146.998C473.876 146.897 478.7 147.935 488.696 151.065C541.934 167.733 601.012 177.316 649.031 177.071C720.194 176.71 779.444 164.334 900.893 124.461C991.758 94.6299 1052.56 79.9454 1117.14 72.2334C1174.15 65.4251 1211.89 66.0225 1253.46 74.3905C1274.91 78.7084 1300.53 85.5019 1321.77 92.5031C1342.09 99.2032 1342.21 99.2615 1336.26 99.3999C1332.02 99.4981 1326.26 98.5147 1316.66 96.0571C1285.77 88.1488 1259.7 84.6188 1226.54 83.8543C1193.05 83.0821 1161.99 85.9498 1120.79 93.6187C1067.41 103.555 1026.59 114.786 928.877 146.42C880.885 161.957 852.961 170.05 822.535 177.242C781.421 186.96 749.422 192.121 717.001 194.263C698.237 195.503 658.566 195.351 644.032 193.984Z" fill="#DFD474"/>
</g>
<mask id="mask5_557_123" style="mask-type:alpha" maskUnits="userSpaceOnUse" x="206" y="81" width="430" height="99">
<path d="M221.776 146.022C222.063 146.212 225.714 147.626 227.432 148.754C227.302 149.969 227.196 151.228 227.518 152.291C228.002 153.894 231.712 154.736 233.529 155.376C237.28 156.698 242.344 159.727 243.99 162.45C245.239 164.515 243.893 167.351 244.183 169.557C244.436 171.476 250.406 173.401 252.651 174.039C257.996 175.557 264.718 176.498 270.432 177.045C286.666 178.598 302.95 179.986 319.419 179.663C334.418 179.37 350.224 177.723 364.851 175.446C372.746 174.217 380.694 171.664 388.433 169.954C398.528 167.722 405.617 162.626 414.279 158.75C429.217 152.066 445.004 146.327 460.624 140.455C465.42 138.652 469.983 136.37 475.274 135.268C480.944 134.087 487.872 132.927 492.794 130.709C495.355 129.555 498.248 129.468 500.824 128.373C502.472 127.672 503.717 127.474 505.661 127.518C540.713 128.318 575.692 129.599 610.719 130.398C614.49 130.484 617.807 130.608 621.432 129.945C624.99 129.295 624.621 129.211 626.282 126.786C628.114 124.112 630.531 122.017 631.592 119.054C632.59 116.269 634.825 113.265 635.028 110.421C635.448 104.516 635.331 97.8166 628.626 93.2816C624.745 90.6565 618.581 88.7948 613.553 87.5769C606.695 85.9162 600.517 85.2961 593.31 85.1316C585.823 84.9608 579.044 84.0696 571.674 83.1906C559.27 81.711 543.958 81.3167 531.606 82.5712C522.366 83.5096 512.422 84.3054 503.597 86.4619C478.01 92.7141 455.236 102.267 431.709 111.357C419.359 116.129 407.048 119.243 393.627 122.335C375.896 126.42 359.149 132.175 341.305 136.044C318.471 140.995 295.303 138.857 273.425 132.378C266.054 130.195 259.656 127.039 251.863 125.48C242.341 123.575 231.959 122.721 222.076 122.495C217.803 122.398 213.863 123.251 209.957 124.041C203.961 125.255 206.223 133.079 208.342 135.959C209.934 138.121 212.447 140.79 214.906 142.541C216.862 143.936 219.707 144.647 221.776 146.022Z" fill="#D9D9D9"/>
</mask>
<g mask="url(#mask5_557_123)">
<path fill-rule="evenodd" clip-rule="evenodd" d="M447.269 225.718C443.805 225.41 438.458 224.749 435.387 224.249C424.678 222.504 403.932 217.744 404.685 217.204C404.855 217.083 410.069 217.42 416.273 217.954C432.599 219.359 442.924 218.736 457.356 215.473C468.689 212.911 479.265 208.662 507.477 195.335C548.208 176.095 563.064 170.44 580.577 167.514C591.751 165.646 605.846 166.07 620.879 168.725C638.149 171.775 656.264 178.54 668.231 186.408C671.015 188.238 671.201 188.484 670.073 188.834C669.117 189.13 666.082 188.162 657.361 184.777C643.62 179.445 637.058 177.565 628.89 176.621C610.478 174.492 586.101 180.62 556.045 194.934C551.032 197.322 541.509 201.862 534.883 205.022C514.463 214.765 500.888 220.112 489.78 222.789C477.336 225.787 460.832 226.924 447.269 225.718ZM279.397 219.466C248.127 216.003 219.906 204.525 195.589 185.381C167.493 163.262 154.773 137.633 158.242 110.133C159.288 101.844 160.801 96.3439 163.973 89.2944C180.897 51.6864 238.564 26.0245 303.532 27.1898C314.821 27.3922 317.794 27.6207 327.643 29.0421C377.627 36.2574 407.074 44.7889 433.866 59.8188C439.565 63.016 441.368 64.6149 436.531 62.1839C431.422 59.6149 415.387 53.1433 406.704 50.1452C382.233 41.6957 354.992 35.6862 329.162 33.0381C318.678 31.9628 296.155 31.3327 287.138 31.8623C253.644 33.8279 222.756 44.0621 199.059 61.0449C177.071 76.8032 166.664 95.4815 167.363 117.933C167.597 125.408 168.585 130.855 170.853 137.14C179.959 162.394 207.923 185.321 243.79 196.94C251.242 199.354 263.394 202.011 273.607 203.46C285.725 205.179 306.409 205.757 316.229 204.651C347.007 201.185 377.505 193.002 429.636 174.223C500.385 148.737 524.619 141.106 546.294 137.492C562.255 134.83 569.241 134.374 587.689 134.79C602.182 135.116 604.443 135.278 610.413 136.424C626.718 139.552 643.526 144.872 653.14 149.947C655.02 150.939 656.471 151.815 656.363 151.892C656.255 151.97 652.283 151.184 647.537 150.147C628.047 145.888 610.388 143.841 598.408 144.452C567.842 146.009 524.935 157.356 464.286 179.921C443.68 187.588 415.915 197.297 403.905 201.035C371.432 211.143 343.205 217.463 322.659 219.226C308.783 220.416 288.971 220.526 279.397 219.466ZM306.377 163.939C293.022 162.479 279.168 159.691 267.011 156.017C258.453 153.431 240.52 146.26 232.104 142.059L225.206 138.616L227.68 138.529C229.523 138.465 231.702 139.024 236.216 140.721C260.258 149.753 286.957 154.884 308.675 154.643C340.862 154.288 367.686 147.363 422.703 125.205C463.866 108.628 491.396 100.432 520.623 96.0558C546.424 92.1923 563.49 92.4369 582.272 96.9391C591.965 99.2621 603.537 102.935 613.126 106.732C622.304 110.365 622.359 110.397 619.666 110.486C617.749 110.549 615.143 110.022 610.807 108.694C596.855 104.421 585.073 102.54 570.077 102.194C554.93 101.844 540.879 103.487 522.227 107.788C498.062 113.361 479.574 119.616 435.311 137.199C413.571 145.834 400.924 150.339 387.147 154.354C368.531 159.78 354.047 162.684 339.379 163.932C330.889 164.654 312.947 164.658 306.377 163.939Z" fill="#E0D35A"/>
</g>
<mask id="mask6_557_123" style="mask-type:alpha" maskUnits="userSpaceOnUse" x="127" y="128" width="462" height="91">
<path d="M570.61 195.132C570.294 195.273 566.305 196.259 564.407 197.097C564.495 198.085 564.555 199.107 564.164 199.953C563.573 201.228 559.545 201.75 557.563 202.189C553.469 203.096 547.891 205.327 546.002 207.457C544.57 209.073 545.896 211.424 545.489 213.195C545.134 214.735 538.628 216.035 536.185 216.454C530.369 217.451 523.095 217.923 516.924 218.119C499.389 218.676 481.808 219.098 464.101 218.129C447.975 217.246 431.04 215.235 415.4 212.765C406.957 211.432 398.515 209.026 390.261 207.31C379.496 205.072 372.088 200.646 362.934 197.14C347.149 191.094 330.408 185.776 313.855 180.356C308.771 178.692 303.96 176.651 298.314 175.533C292.265 174.334 284.86 173.098 279.66 171.093C276.954 170.05 273.844 169.855 271.12 168.859C269.377 168.222 268.046 168.008 265.952 167.96C228.202 167.099 190.51 166.629 152.787 165.769C148.726 165.676 145.152 165.634 141.281 164.942C137.48 164.263 137.881 164.211 136.197 162.179C134.341 159.939 131.831 158.141 130.816 155.7C129.863 153.406 127.587 150.881 127.492 148.573C127.293 143.781 127.707 138.37 135.117 134.992C139.406 133.036 146.118 131.797 151.581 131.028C159.031 129.981 165.705 129.745 173.467 129.922C181.53 130.106 188.862 129.677 196.83 129.284C210.241 128.621 226.733 128.961 239.97 130.507C249.871 131.663 260.536 132.734 269.939 134.857C297.201 141.012 321.295 149.715 346.218 158.076C359.301 162.465 372.414 165.513 386.722 168.59C405.624 172.655 423.396 178.028 442.429 181.923C466.785 186.908 491.806 186.176 515.624 181.879C523.65 180.432 530.669 178.156 539.122 177.23C549.449 176.1 560.657 175.856 571.3 176.099C575.902 176.204 580.105 177.063 584.274 177.87C590.673 179.109 587.902 185.337 585.498 187.574C583.693 189.254 580.874 191.303 578.153 192.614C575.988 193.657 572.896 194.109 570.61 195.132Z" fill="#D9D9D9"/>
</mask>
<g mask="url(#mask6_557_123)">
<path fill-rule="evenodd" clip-rule="evenodd" d="M324.556 249.856C328.296 249.756 334.078 249.451 337.404 249.179C349.002 248.23 371.529 245.274 370.742 244.805C370.564 244.699 364.939 244.748 358.241 244.913C340.615 245.346 329.531 244.398 314.144 241.139C302.059 238.58 290.862 234.69 261.081 222.703C218.083 205.396 202.341 200.186 183.624 197.066C171.681 195.076 156.496 194.812 140.207 196.311C121.494 198.034 101.711 202.724 88.4961 208.57C85.4221 209.93 85.2111 210.121 86.4104 210.452C87.4264 210.733 90.7334 210.081 100.262 207.72C115.276 204 122.419 202.762 131.248 202.35C151.15 201.421 177.116 207.424 208.839 220.289C214.131 222.435 224.183 226.515 231.176 229.356C252.728 238.11 267.105 243.017 278.941 245.659C292.202 248.618 309.911 250.248 324.556 249.856ZM505.453 252.023C539.247 250.568 570.106 242.504 597.095 228.073C628.277 211.399 643.066 191.227 640.516 168.845C639.747 162.099 638.356 157.587 635.246 151.752C618.655 120.62 557.71 97.3926 487.755 95.5398C475.6 95.2178 472.391 95.2747 461.733 96.0001C407.64 99.683 375.588 105.314 346.114 116.312C339.845 118.651 337.837 119.867 343.145 118.109C348.753 116.252 366.284 111.71 375.756 109.66C402.45 103.881 432.019 100.195 459.926 99.1652C471.253 98.747 495.515 99.2065 505.194 100.023C541.148 103.052 573.943 112.655 598.71 127.404C621.691 141.09 632.084 156.638 630.366 174.759C629.794 180.792 628.496 185.152 625.786 190.137C614.9 210.161 583.826 227.493 544.734 235.344C536.612 236.975 523.423 238.6 512.371 239.332C499.258 240.201 476.977 239.778 466.459 238.462C433.492 234.335 401.028 226.408 345.744 208.983C270.717 185.336 244.969 178.124 221.803 174.27C204.743 171.431 197.246 170.762 177.378 170.304C161.771 169.945 159.331 169.979 152.858 170.648C135.179 172.476 116.865 176.053 106.303 179.743C104.237 180.464 102.638 181.11 102.751 181.177C102.863 181.244 107.171 180.78 112.323 180.146C133.476 177.541 152.565 176.645 165.43 177.655C198.251 180.229 243.93 191.248 308.217 212.1C330.058 219.184 359.515 228.228 372.277 231.766C406.782 241.335 436.882 247.659 458.913 249.968C473.793 251.527 495.105 252.468 505.453 252.023ZM478.811 205.972C493.243 205.366 508.27 203.708 521.509 201.261C530.829 199.538 550.433 194.513 559.668 191.478L567.239 188.992L564.58 188.815C562.601 188.684 560.232 189.042 555.301 190.219C529.045 196.487 500.097 199.487 476.738 198.358C442.121 196.686 413.557 189.934 355.312 169.654C311.736 154.481 282.466 146.671 251.206 141.875C223.612 137.642 205.239 137.106 184.836 139.937C174.306 141.398 161.697 143.87 151.216 146.527C141.184 149.069 141.124 149.093 144.018 149.281C146.077 149.414 148.904 149.1 153.627 148.213C168.823 145.359 181.581 144.345 197.731 144.71C214.044 145.079 229.092 147.012 248.976 151.291C274.737 156.836 294.361 162.689 341.231 178.807C364.251 186.724 377.666 190.91 392.316 194.749C412.114 199.936 427.573 202.907 443.302 204.546C452.406 205.495 471.711 206.271 478.811 205.972Z" fill="#296195"/>
</g>
<mask id="mask7_557_123" style="mask-type:alpha" maskUnits="userSpaceOnUse" x="79" y="26" width="1208" height="256">
<path d="M1240.36 213.656C1239.53 214.063 1229.07 216.909 1224.09 219.318C1224.32 222.147 1224.47 225.074 1223.44 227.498C1221.88 231.153 1211.32 232.669 1206.13 233.937C1195.39 236.557 1180.76 242.977 1175.8 249.089C1172.03 253.725 1175.5 260.449 1174.42 265.522C1173.48 269.935 1156.42 273.694 1150.02 274.907C1134.77 277.795 1115.7 279.185 1099.53 279.782C1053.57 281.476 1007.49 282.78 961.091 280.102C918.833 277.664 874.459 271.999 833.483 265.013C811.363 261.242 789.253 254.399 767.63 249.531C739.427 243.181 720.037 230.549 696.067 220.56C654.73 203.333 610.886 188.195 567.532 172.768C554.218 168.03 541.621 162.212 526.829 159.04C510.982 155.641 491.582 152.144 477.964 146.431C470.878 143.458 462.729 142.918 455.594 140.08C451.03 138.264 447.543 137.659 442.055 137.534C343.126 135.277 244.344 134.141 145.484 131.886C134.841 131.643 125.474 131.542 115.331 129.582C105.374 127.658 106.425 127.508 102.025 121.699C97.1731 115.293 90.6041 110.159 87.958 103.173C85.4719 96.6089 79.5214 89.3916 79.2838 82.7821C78.7904 69.0601 79.9053 53.5625 99.3429 43.8482C110.594 38.2251 128.193 34.6372 142.515 32.4068C162.046 29.3654 179.538 28.6538 199.879 29.118C221.011 29.6001 240.23 28.3314 261.114 27.16C296.265 25.1883 339.487 26.0704 374.169 30.423C400.113 33.6789 428.057 36.6872 452.689 42.7149C524.104 60.1906 587.201 84.9786 652.474 108.784C686.738 121.28 721.086 129.935 758.568 138.667C808.085 150.203 854.632 165.491 904.493 176.542C968.297 190.682 1033.88 188.447 1096.32 176.01C1117.37 171.82 1135.78 165.263 1157.93 162.567C1185 159.271 1214.38 158.511 1242.27 159.148C1254.33 159.423 1265.34 161.86 1276.26 164.148C1293.03 167.66 1285.73 185.512 1279.42 191.931C1274.68 196.75 1267.28 202.635 1260.14 206.403C1254.46 209.402 1246.36 210.715 1240.36 213.656Z" fill="#D9D9D9"/>
</mask>
<g mask="url(#mask7_557_123)">
<path fill-rule="evenodd" clip-rule="evenodd" d="M595.193 371.746C604.996 371.439 620.15 370.535 628.868 369.737C659.27 366.953 718.327 358.364 716.265 357.025C715.801 356.724 701.058 356.894 683.503 357.403C637.305 358.743 608.262 356.088 567.952 346.842C536.295 339.581 506.972 328.503 428.987 294.34C316.391 245.017 275.164 230.183 226.127 221.354C194.839 215.721 155.044 215.049 112.345 219.433C63.2906 224.471 11.4174 238.01 -23.2486 254.826C-31.3126 258.737 -31.8668 259.284 -28.7253 260.226C-26.064 261.025 -17.3936 259.138 7.59325 252.324C46.9632 241.588 65.6885 238.005 88.8302 236.776C140.996 234.005 209.013 251.053 292.084 287.718C305.941 293.834 332.262 305.462 350.573 313.557C407.009 338.508 444.661 352.48 475.667 359.98C510.405 368.382 556.809 372.95 595.193 371.746ZM1069.28 376.949C1157.85 372.596 1238.77 349.33 1309.59 307.854C1391.4 259.934 1430.27 202.085 1423.72 138.005C1421.74 118.691 1418.12 105.778 1410 89.0834C1366.69 0.0227771 1207.09 -66.1545 1023.76 -71.0725C991.908 -71.9273 983.499 -71.7466 955.561 -69.6101C813.772 -58.7635 729.741 -42.4617 652.434 -10.8026C635.989 -4.06792 630.719 -0.577113 644.641 -5.63901C659.349 -10.9882 705.321 -24.0928 730.157 -30.0166C800.147 -46.7117 877.664 -57.4325 950.809 -60.5361C980.498 -61.7966 1044.08 -60.6152 1069.44 -58.3319C1163.65 -49.8546 1249.55 -22.5377 1314.38 19.5619C1374.53 58.6261 1401.69 103.093 1397.08 154.995C1395.55 172.276 1392.12 184.77 1384.99 199.059C1356.35 256.464 1274.82 306.269 1172.32 328.966C1151.02 333.683 1116.45 338.41 1087.48 340.568C1053.11 343.128 994.717 342.041 967.158 338.33C880.779 326.696 795.742 304.174 650.95 254.582C454.447 187.278 387.007 166.77 326.315 155.86C281.62 147.826 261.976 145.951 209.908 144.751C169.005 143.808 162.611 143.919 145.642 145.871C99.2991 151.203 51.2817 161.55 23.5793 172.173C18.1602 174.251 13.9678 176.108 14.2633 176.3C14.5571 176.492 25.8493 175.139 39.3542 173.294C94.8088 165.717 144.842 163.048 178.552 165.866C264.555 173.055 384.211 204.358 552.58 263.715C609.783 283.881 686.934 309.616 720.36 319.679C810.739 346.89 889.59 364.833 947.318 371.322C986.307 375.704 1042.16 378.282 1069.28 376.949ZM999.711 245.221C1037.54 243.406 1076.93 238.574 1111.64 231.493C1136.07 226.508 1187.48 212.008 1211.7 203.267L1231.56 196.104L1224.59 195.613C1219.4 195.248 1213.19 196.288 1200.26 199.686C1131.42 217.781 1055.53 226.531 994.32 223.429C903.605 218.833 828.779 199.654 676.244 141.901C562.122 98.6923 485.455 76.4886 403.555 62.9295C331.259 50.9596 283.109 49.5254 229.621 57.7478C202.017 61.9903 168.956 69.1381 141.472 76.8048C115.166 84.1415 115.009 84.2086 122.592 84.7306C127.989 85.1017 135.4 84.1868 147.781 81.6202C187.624 73.3614 221.067 70.3888 263.391 71.3444C306.142 72.3098 345.568 77.7607 397.657 89.9058C465.143 105.642 516.54 122.293 639.288 168.192C699.576 190.735 734.71 202.648 773.086 213.56C824.943 228.305 865.442 236.726 906.656 241.335C930.509 244.002 981.1 246.115 999.711 245.221Z" fill="#A6E0DD"/>
</g>
<g filter="url(#filter0_d_557_123)">
<path fill-rule="evenodd" clip-rule="evenodd" d="M371.48 80.2858C364.638 81.3099 354.685 82.9338 349.363 83.8971L339.687 85.6468L339.759 111.215C339.906 163.618 342.247 267.526 343.296 268.175C343.895 268.545 349.279 269.224 355.262 269.686C364.78 270.42 374.324 269.537 389.105 266.554L392.906 265.787V233.343V200.898L399.24 201.319L405.572 201.741L414.3 218.326C419.099 227.447 426.273 241.13 430.242 248.731C442.111 271.462 439.228 269.312 456.427 268.267C468.844 267.513 494.453 263.197 495.838 261.626C496.237 261.173 488.617 248.715 466.634 213.889C455.504 196.257 453.347 191.375 456.688 191.375C459.132 191.375 472.977 179.053 477.412 172.933C482.594 165.781 486.903 151.077 486.903 140.547C486.903 108.505 468.622 87.9245 432.726 79.5574C424.034 77.5313 386.955 77.9722 371.48 80.2858ZM1079.79 78.6301C1079.47 78.9521 1073.92 79.8781 1067.46 80.688C1053.55 82.4349 1037.54 85.3649 1036.58 86.3393C1035.86 87.0745 1037.8 201.08 1039.25 243.445L1040.12 268.562L1050.65 269.549C1059.99 270.424 1075.57 269.078 1086.48 266.455L1089.59 265.707V233.303V200.898L1096.15 201.319C1102.66 201.737 1102.76 201.81 1106.97 210.033C1109.3 214.594 1114.1 223.669 1117.62 230.2C1121.15 236.731 1127.07 247.925 1130.79 255.078L1137.54 268.08L1151.77 267.845C1164.76 267.632 1187.26 264.313 1191.57 261.974C1192.86 261.278 1191.32 257.824 1185.93 249.345C1181.86 242.926 1172.38 227.782 1164.88 215.689L1151.22 193.704L1154.62 191.544C1156.48 190.357 1162.37 185.012 1167.71 179.669C1180.38 166.969 1182.89 160.435 1182.89 140.239C1182.89 122.602 1180.02 112.89 1171.89 103.01C1161.1 89.9147 1153.53 85.7616 1128.98 79.4759C1123.73 78.1311 1081.02 77.3973 1079.79 78.6301ZM520.769 82.996C502.709 86.4761 498.329 88.7164 501.937 92.6263C503.264 94.0637 508.297 102.99 515.315 116.355C517.797 121.082 520.975 126.679 522.378 128.794C523.78 130.907 526.144 135.125 527.628 138.166C529.114 141.206 531.416 145.305 532.744 147.276C534.073 149.246 537.249 154.843 539.804 159.715C545.206 170.018 548.136 175.202 549.106 176.172C549.487 176.553 551.596 180.284 553.795 184.465C555.995 188.646 558.794 193.932 560.016 196.212C561.821 199.581 562.368 206.711 562.93 234.219L563.621 268.08L572.566 269.352C580.828 270.526 604.883 268.708 610.721 266.467C612.348 265.843 612.693 260.159 612.693 233.864V202.017L618.222 192.428C621.263 187.154 623.751 182.571 623.751 182.243C623.751 181.915 625.208 179.326 626.99 176.49C628.77 173.656 633.217 165.738 636.87 158.897C640.524 152.055 643.978 145.836 644.546 145.076C645.115 144.316 647.278 140.584 649.354 136.783C651.432 132.983 658.028 121.114 664.013 110.407C669.999 99.6997 674.896 90.3404 674.896 89.6079C674.896 86.2149 646.606 80.4738 632.88 81.0791C626.158 81.3762 623.018 82.1115 622.228 83.5737C621.613 84.7139 614.201 99.7951 605.76 117.089C597.319 134.383 589.872 148.531 589.213 148.531C588.553 148.531 587.127 146.821 586.043 144.73C578.656 130.476 567.882 110.025 562.2 99.4675C558.519 92.6263 554.843 85.6344 554.034 83.9303C552.68 81.0791 551.676 80.8428 541.504 80.9824C535.422 81.0639 526.091 81.9705 520.769 82.996ZM204.502 83.6055C198.573 84.1708 190.86 85.434 187.361 86.4139L181 88.1954L182.095 113.18C182.697 126.922 183.568 167.387 184.03 203.101L184.869 268.036L190.398 269.014C201.059 270.902 215.513 270.068 232.213 266.6L235.323 265.955V232.811V199.668H269.719H304.116L304.95 196.558C306.032 192.518 306.032 162.591 304.95 158.551L304.116 155.441H269.719H235.323V140.239V125.036H274.541H313.758L314.734 113.852C315.27 107.702 315.277 98.062 314.749 92.43L313.79 82.1917L264.535 82.3852C237.445 82.4916 210.429 83.0403 204.502 83.6055ZM684.541 92.0569C683.024 101.046 683.42 113.381 685.499 121.926C686.251 125.016 686.414 125.036 712.871 125.036H739.487L740.38 170.299C740.871 195.193 741.659 227.489 742.13 242.065L742.989 268.569L753.424 269.547C762.572 270.403 781.692 268.808 789.973 266.496C792.236 265.865 792.392 261.29 792.392 195.429V125.036H819.285H846.176L847.249 119.853C848.631 113.174 848.631 94.054 847.249 87.3744L846.176 82.1917H766.191H686.205L684.541 92.0569ZM893.171 83.5834C887.397 84.1376 879.385 85.4326 875.365 86.4623L868.057 88.335L868.983 99.4302C869.707 108.112 872.219 222.569 872.509 260.133L872.566 267.389H940.802H1009.04L1009.92 260.976C1011.04 252.758 1011.04 237.793 1009.92 229.576L1009.04 223.163H965.634H922.229L922.625 209.688L923.02 196.212L959.651 195.521L996.282 194.83V174.79V154.75L959.306 154.383L922.329 154.014V139.525V125.036H963.61H1004.89L1005.77 118.623C1006.9 110.416 1006.9 96.8112 1005.77 88.6045L1004.89 82.1917L954.28 82.3852C926.443 82.4916 898.944 83.0306 893.171 83.5834ZM422.362 123.572C424.027 124.216 426.945 126.106 428.846 127.77C432.069 130.593 432.302 131.666 432.302 143.695C432.302 150.789 431.884 157.01 431.374 157.52C429.374 159.52 419.243 160.905 406.383 160.937L392.906 160.97V141.717C392.906 122.873 392.972 122.45 396.016 121.785C400.217 120.87 418.593 122.116 422.362 123.572ZM1122.05 124.817C1129.89 129.381 1132.99 141.055 1129.48 152.791C1128.61 155.689 1126.9 158.494 1125.68 159.024C1124.45 159.552 1115.83 160.281 1106.52 160.644L1089.59 161.303V141.883C1089.59 122.869 1089.65 122.45 1092.7 121.78C1098.96 120.405 1117.81 122.356 1122.05 124.817Z" fill="white"/>
</g>
<defs>
<filter id="filter0_d_557_123" x="146" y="43" width="1091" height="272" filterUnits="userSpaceOnUse" color-interpolation-filters="sRGB">
<feFlood flood-opacity="0" result="BackgroundImageFix"/>
<feColorMatrix in="SourceAlpha" type="matrix" values="0 0 0 0 0 0 0 0 0 0 0 0 0 0 0 0 0 0 127 0" result="hardAlpha"/>
<feOffset dx="5" dy="5"/>
<feGaussianBlur stdDeviation="20"/>
<feComposite in2="hardAlpha" operator="out"/>
<feColorMatrix type="matrix" values="0 0 0 0 0.101961 0 0 0 0 0.117647 0 0 0 0 0.282353 0 0 0 1 0"/>
<feBlend mode="normal" in2="BackgroundImageFix" result="effect1_dropShadow_557_123"/>
<feBlend mode="normal" in="SourceGraphic" in2="effect1_dropShadow_557_123" result="shape"/>
</filter>
<linearGradient id="paint0_linear_557_123" x1="932.606" y1="129.258" x2="932.606" y2="422.522" gradientUnits="userSpaceOnUse">
<stop stop-color="#3BA3C3"/>
<stop offset="1" stop-color="#3BA3C3"/>
</linearGradient>
</defs>
</svg>
