<svg width="158" height="47" viewBox="0 0 158 47" fill="none" xmlns="http://www.w3.org/2000/svg">
<mask id="mask0_489_508" style="mask-type:alpha" maskUnits="userSpaceOnUse" x="0" y="22" width="96" height="19">
<path d="M3.56086 27.6815C3.62533 27.6499 4.44182 27.4212 4.82845 27.2341C4.80572 27.0247 4.78861 26.8078 4.86522 26.6264C4.98078 26.3527 5.80741 26.2224 6.21336 26.1195C7.05169 25.9071 8.18946 25.4063 8.56823 24.9446C8.85549 24.5945 8.5714 24.1017 8.64701 23.7236C8.71277 23.3949 10.0459 23.0872 10.5467 22.9864C11.7392 22.7464 13.2342 22.6111 14.5035 22.5395C18.1101 22.3361 21.727 22.1614 25.3762 22.2815C28.6997 22.3908 32.195 22.7358 35.4259 23.1846C37.17 23.4268 38.9189 23.8968 40.6259 24.2213C42.8524 24.6444 44.398 25.5483 46.2986 26.2486C49.5762 27.4561 53.0469 28.5045 56.4797 29.5752C57.5339 29.904 58.5337 30.3141 59.7012 30.5243C60.9519 30.7495 62.4819 30.9761 63.5618 31.3767C64.1236 31.5852 64.7647 31.6114 65.3301 31.8098C65.6919 31.9368 65.9668 31.9757 66.3981 31.9757C74.1723 31.9757 81.9329 31.8928 89.7016 31.8928C90.538 31.8928 91.2739 31.8844 92.074 32.0126C92.8595 32.1384 92.7772 32.1513 93.1333 32.5747C93.5258 33.0414 94.051 33.4111 94.2713 33.9247C94.4783 34.4072 94.9586 34.9324 94.9891 35.4221C95.0525 36.4389 94.9927 37.59 93.4834 38.3433C92.6098 38.7793 91.234 39.0752 90.1131 39.2648C88.5845 39.5234 87.2119 39.6057 85.6134 39.6057C83.9529 39.6057 82.4456 39.7323 80.8074 39.8545C78.0501 40.0602 74.6538 40.068 71.922 39.8039C69.8784 39.6063 67.6783 39.4305 65.7328 39.0252C60.0923 37.8501 55.0921 36.1186 49.9228 34.4638C47.2092 33.595 44.4959 33.0114 41.5363 32.4272C37.6265 31.6555 33.9432 30.6006 30.0071 29.8655C24.9705 28.9248 19.8237 29.2015 14.9412 30.2295C13.2961 30.5758 11.8619 31.0932 10.1265 31.3306C8.0061 31.6208 5.70024 31.7269 3.50833 31.7269C2.56061 31.7269 1.69138 31.5648 0.829563 31.4136C-0.493389 31.1815 0.0475643 29.8453 0.531922 29.3586C0.895589 28.9932 1.46632 28.5443 2.02013 28.2528C2.46093 28.0208 3.09518 27.9097 3.56086 27.6815Z" fill="#D9D9D9"/>
</mask>
<g mask="url(#mask0_489_508)">
<path fill-rule="evenodd" clip-rule="evenodd" d="M53.9505 14.8641C53.181 14.9034 51.9924 14.9961 51.3091 15.07C48.9263 15.3279 44.3032 16.0648 44.4676 16.1606C44.5046 16.1821 45.6622 16.1446 47.0401 16.0771C50.6662 15.8996 52.952 16.0473 56.1347 16.6648C58.6341 17.1497 60.9571 17.9216 67.1434 20.323C76.0753 23.7902 79.3401 24.8205 83.2073 25.3922C85.6749 25.757 88.8017 25.7395 92.1475 25.3421C95.9913 24.8855 100.041 23.7938 102.734 22.4881C103.36 22.1844 103.403 22.143 103.154 22.0784C102.944 22.0236 102.266 22.1782 100.316 22.7258C97.243 23.5886 95.7787 23.886 93.9633 24.0163C89.8711 24.31 84.4983 23.1609 77.908 20.5825C76.8086 20.1524 74.7205 19.3346 73.2678 18.7653C68.7905 17.0105 65.8082 16.0381 63.3594 15.5344C60.616 14.9701 56.963 14.7099 53.9505 14.8641ZM16.7053 15.2804C9.75614 15.7531 3.44216 17.6153 -2.0453 20.8109C-8.38541 24.5029 -11.3347 28.8586 -10.7048 33.5995C-10.5149 35.0284 -10.2074 35.9799 -9.53976 37.2041C-5.97849 43.7353 6.67517 48.3728 21.0831 48.4273C23.5866 48.4368 24.2468 48.4092 26.4372 48.2035C37.5542 47.1592 44.1251 45.8081 50.1402 43.3296C51.4198 42.8023 51.8274 42.5345 50.743 42.9335C49.5974 43.355 46.0101 44.4046 44.0701 44.8859C38.6028 46.2424 32.5336 47.1686 26.7942 47.5225C24.4646 47.6662 19.4686 47.6862 17.4725 47.5598C10.0577 47.0905 3.26226 45.2101 -1.90495 42.1979C-6.69951 39.4028 -8.91197 36.1511 -8.64341 32.2945C-8.55389 31.0104 -8.30717 30.0781 -7.77276 29.0064C-5.62626 24.701 0.688577 20.8696 8.69817 19.013C10.3624 18.6272 13.0695 18.2181 15.341 18.0091C18.036 17.7611 22.6241 17.7429 24.7953 17.9715C31.6006 18.688 38.3199 20.2144 49.7811 23.647C65.3356 28.3055 70.6693 29.7122 75.4557 30.4186C78.9805 30.9387 80.5268 31.0445 84.6185 31.0454C87.8328 31.0462 88.3348 31.0271 89.6641 30.8536C93.2944 30.3798 97.0473 29.5313 99.2041 28.6966C99.626 28.5333 99.9519 28.3885 99.9284 28.3748C99.9049 28.3611 99.0204 28.4805 97.9631 28.6402C93.6211 29.2959 89.6962 29.5785 87.0434 29.4266C80.2757 29.039 70.8215 26.9201 57.491 22.8033C52.962 21.4046 46.8562 19.6267 44.2129 18.937C37.0655 17.072 30.8402 15.8749 26.2945 15.4914C23.2244 15.2323 18.8331 15.1357 16.7053 15.2804ZM22.4054 24.9312C19.4376 25.1299 16.3524 25.5548 13.6388 26.1387C11.7286 26.5497 7.71701 27.7119 5.83023 28.4011L4.28368 28.9659L4.83165 28.9905C5.23971 29.0088 5.72572 28.9212 6.735 28.6473C12.1101 27.1889 18.0546 26.4117 22.8678 26.5382C30.0011 26.7255 35.9124 28.0212 47.9964 32.0458C57.0373 35.057 63.0987 36.5738 69.5556 37.4407C75.2554 38.206 79.0398 38.2309 83.2261 37.5307C85.3866 37.1694 87.9704 36.5834 90.1154 35.9683C92.1683 35.3797 92.1806 35.3745 91.5841 35.3486C91.1595 35.3302 90.5791 35.4106 89.6112 35.6219C86.4967 36.3018 83.8753 36.5788 80.5494 36.5795C77.1898 36.5803 74.0835 36.2428 69.9705 35.4303C64.6418 34.3775 60.5751 33.2296 50.8519 30.0336C46.0764 28.4639 43.2955 27.6399 40.2618 26.8957C36.1624 25.8899 32.9664 25.334 29.7211 25.062C27.8429 24.9045 23.8656 24.8334 22.4054 24.9312Z" fill="#3BA3C3"/>
</g>
<mask id="mask1_489_508" style="mask-type:alpha" maskUnits="userSpaceOnUse" x="60" y="22" width="96" height="19">
<path d="M64.1859 27.6815C64.2503 27.6499 65.0668 27.4212 65.4534 27.2341C65.4307 27.0247 65.4136 26.8078 65.4902 26.6264C65.6058 26.3527 66.4324 26.2224 66.8384 26.1195C67.6767 25.9071 68.8145 25.4063 69.1932 24.9446C69.4805 24.5945 69.1964 24.1017 69.272 23.7236C69.3378 23.3949 70.6709 23.0872 71.1717 22.9864C72.3642 22.7464 73.8592 22.6111 75.1285 22.5395C78.7351 22.3361 82.352 22.1614 86.0012 22.2815C89.3247 22.3908 92.82 22.7358 96.0509 23.1846C97.795 23.4268 99.5439 23.8968 101.251 24.2213C103.477 24.6444 105.023 25.5483 106.924 26.2486C110.201 27.4561 113.672 28.5045 117.105 29.5752C118.159 29.904 119.159 30.3141 120.326 30.5243C121.577 30.7495 123.107 30.9761 124.187 31.3767C124.749 31.5852 125.39 31.6114 125.955 31.8098C126.317 31.9368 126.592 31.9757 127.023 31.9757C134.797 31.9757 142.558 31.8928 150.327 31.8928C151.163 31.8928 151.899 31.8844 152.699 32.0126C153.484 32.1384 153.402 32.1513 153.758 32.5747C154.151 33.0414 154.676 33.4111 154.896 33.9247C155.103 34.4072 155.584 34.9324 155.614 35.4221C155.677 36.4389 155.618 37.59 154.108 38.3433C153.235 38.7793 151.859 39.0752 150.738 39.2648C149.21 39.5234 147.837 39.6057 146.238 39.6057C144.578 39.6057 143.071 39.7323 141.432 39.8545C138.675 40.0602 135.279 40.068 132.547 39.8039C130.503 39.6063 128.303 39.4305 126.358 39.0252C120.717 37.8501 115.717 36.1186 110.548 34.4638C107.834 33.595 105.121 33.0114 102.161 32.4272C98.2515 31.6555 94.5682 30.6006 90.6321 29.8655C85.5955 28.9248 80.4487 29.2015 75.5662 30.2295C73.9211 30.5758 72.4869 31.0932 70.7515 31.3306C68.6311 31.6208 66.3252 31.7269 64.1333 31.7269C63.1856 31.7269 62.3164 31.5648 61.4546 31.4136C60.1316 31.1815 60.6726 29.8453 61.1569 29.3586C61.5206 28.9932 62.0913 28.5443 62.6451 28.2528C63.0859 28.0208 63.7202 27.9097 64.1859 27.6815Z" fill="#D9D9D9"/>
</mask>
<g mask="url(#mask1_489_508)">
<path fill-rule="evenodd" clip-rule="evenodd" d="M114.575 14.8641C113.806 14.9034 112.617 14.9961 111.934 15.07C109.551 15.3279 104.928 16.0648 105.093 16.1606C105.13 16.1821 106.287 16.1446 107.665 16.0771C111.291 15.8996 113.577 16.0473 116.76 16.6648C119.259 17.1497 121.582 17.9216 127.768 20.323C136.7 23.7902 139.965 24.8205 143.832 25.3922C146.3 25.757 149.427 25.7395 152.772 25.3421C156.616 24.8855 160.666 23.7938 163.359 22.4881C163.985 22.1844 164.028 22.143 163.779 22.0784C163.569 22.0236 162.891 22.1782 160.941 22.7258C157.868 23.5886 156.404 23.886 154.588 24.0163C150.496 24.31 145.123 23.1609 138.533 20.5825C137.434 20.1524 135.346 19.3346 133.893 18.7653C129.415 17.0105 126.433 16.0381 123.984 15.5344C121.241 14.9701 117.588 14.7099 114.575 14.8641ZM77.3303 15.2804C70.3811 15.7531 64.0672 17.6153 58.5797 20.8109C52.2396 24.5029 49.2903 28.8586 49.9202 33.5995C50.1101 35.0284 50.4176 35.9799 51.0852 37.2041C54.6465 43.7353 67.3002 48.3728 81.7081 48.4273C84.2116 48.4368 84.8718 48.4092 87.0622 48.2035C98.1792 47.1592 104.75 45.8081 110.765 43.3296C112.045 42.8023 112.452 42.5345 111.368 42.9335C110.222 43.355 106.635 44.4046 104.695 44.8859C99.2278 46.2424 93.1586 47.1686 87.4192 47.5225C85.0896 47.6662 80.0936 47.6862 78.0975 47.5598C70.6827 47.0905 63.8873 45.2101 58.72 42.1979C53.9255 39.4028 51.713 36.1511 51.9816 32.2945C52.0711 31.0104 52.3178 30.0781 52.8522 29.0064C54.9987 24.701 61.3136 20.8696 69.3232 19.013C70.9874 18.6272 73.6945 18.2181 75.966 18.0091C78.661 17.7611 83.2491 17.7429 85.4203 17.9715C92.2256 18.688 98.9449 20.2144 110.406 23.647C125.961 28.3055 131.294 29.7122 136.081 30.4186C139.606 30.9387 141.152 31.0445 145.243 31.0454C148.458 31.0462 148.96 31.0271 150.289 30.8536C153.919 30.3798 157.672 29.5313 159.829 28.6966C160.251 28.5333 160.577 28.3885 160.553 28.3748C160.53 28.3611 159.645 28.4805 158.588 28.6402C154.246 29.2959 150.321 29.5785 147.668 29.4266C140.901 29.039 131.446 26.9201 118.116 22.8033C113.587 21.4046 107.481 19.6267 104.838 18.937C97.6905 17.072 91.4652 15.8749 86.9195 15.4914C83.8493 15.2323 79.4581 15.1357 77.3303 15.2804ZM83.0304 24.9312C80.0626 25.1299 76.9774 25.5548 74.2638 26.1387C72.3536 26.5497 68.342 27.7119 66.4552 28.4011L64.9087 28.9659L65.4567 28.9905C65.8647 29.0088 66.3507 28.9212 67.36 28.6473C72.7351 27.1889 78.6796 26.4117 83.4928 26.5382C90.6261 26.7255 96.5374 28.0212 108.621 32.0458C117.662 35.057 123.724 36.5738 130.181 37.4407C135.88 38.206 139.665 38.2309 143.851 37.5307C146.012 37.1694 148.595 36.5834 150.74 35.9683C152.793 35.3797 152.806 35.3745 152.209 35.3486C151.784 35.3302 151.204 35.4106 150.236 35.6219C147.122 36.3018 144.5 36.5788 141.174 36.5795C137.815 36.5803 134.708 36.2428 130.596 35.4303C125.267 34.3775 121.2 33.2296 111.477 30.0336C106.701 28.4639 103.921 27.6399 100.887 26.8957C96.7874 25.8899 93.5914 25.334 90.3461 25.062C88.4679 24.9045 84.4906 24.8334 83.0304 24.9312Z" fill="url(#paint0_linear_489_508)"/>
</g>
<mask id="mask2_489_508" style="mask-type:alpha" maskUnits="userSpaceOnUse" x="59" y="0" width="96" height="18">
<path d="M63.0403 5.43931C63.1048 5.40771 63.9213 5.17897 64.3079 4.99188C64.2852 4.78247 64.2681 4.56564 64.3447 4.38419C64.4603 4.11049 65.2869 3.98023 65.6929 3.87736C66.5312 3.66491 67.669 3.1641 68.0477 2.70244C68.335 2.35231 68.0509 1.85951 68.1265 1.48145C68.1923 1.15266 69.5253 0.845032 70.0262 0.744249C71.2187 0.504251 72.7137 0.3689 73.983 0.29732C77.5896 0.0939373 81.2065 -0.0807412 84.8557 0.0392996C88.1792 0.148626 91.6745 0.493624 94.9054 0.942372C96.6495 1.1846 98.3984 1.65463 100.105 1.97906C102.332 2.40224 103.878 3.30615 105.778 4.00637C109.056 5.21392 112.526 6.26233 115.959 7.333C117.013 7.6618 118.013 8.07193 119.181 8.28214C120.431 8.50735 121.961 8.73389 123.041 9.13453C123.603 9.34299 124.244 9.36924 124.81 9.56764C125.171 9.69458 125.446 9.73351 125.878 9.73351C133.652 9.73351 141.412 9.65057 149.181 9.65057C150.017 9.65057 150.753 9.6422 151.553 9.77037C152.339 9.89619 152.257 9.90915 152.613 10.3325C153.005 10.7993 153.53 11.1689 153.751 11.6825C153.958 12.1651 154.438 12.6902 154.469 13.1799C154.532 14.1967 154.472 15.3478 152.963 16.1011C152.089 16.5371 150.713 16.833 149.593 17.0226C148.064 17.2812 146.691 17.3636 145.093 17.3636C143.432 17.3636 141.925 17.4902 140.287 17.6124C137.53 17.818 134.133 17.8258 131.401 17.5617C129.358 17.3641 127.158 17.1883 125.212 16.783C119.572 15.6079 114.572 13.8765 109.402 12.2216C106.689 11.3529 103.975 10.7692 101.016 10.185C97.106 9.41335 93.4227 8.35836 89.4866 7.62327C84.45 6.68263 79.3032 6.95936 74.4207 7.98726C72.7756 8.33362 71.3414 8.85098 69.606 9.08846C67.4856 9.37862 65.1797 9.4847 62.9878 9.4847C62.0401 9.4847 61.1709 9.32259 60.3091 9.17139C58.9861 8.93929 59.5271 7.60312 60.0114 7.11644C60.3751 6.75103 60.9458 6.30212 61.4996 6.01064C61.9404 5.77863 62.5747 5.6675 63.0403 5.43931Z" fill="#D9D9D9"/>
</mask>
<g mask="url(#mask2_489_508)">
<path fill-rule="evenodd" clip-rule="evenodd" d="M113.43 -7.37811C112.661 -7.33875 111.472 -7.24604 110.789 -7.17215C108.406 -6.91427 103.783 -6.1774 103.947 -6.08162C103.984 -6.06007 105.142 -6.0976 106.52 -6.16509C110.146 -6.34258 112.432 -6.19488 115.614 -5.57742C118.114 -5.09253 120.437 -4.32063 126.623 -1.91914C135.555 1.548 138.82 2.57828 142.687 3.15005C145.154 3.51486 148.281 3.4973 151.627 3.09995C155.471 2.64336 159.521 1.55158 162.213 0.245941C162.84 -0.0577931 162.882 -0.0992346 162.634 -0.163809C162.423 -0.218564 161.746 -0.063952 159.795 0.483601C156.723 1.34637 155.258 1.64378 153.443 1.77409C149.351 2.06784 143.978 0.91873 137.387 -1.65968C136.288 -2.08981 134.2 -2.90756 132.747 -3.47692C128.27 -5.23167 125.288 -6.20411 122.839 -6.70781C120.095 -7.27209 116.443 -7.5323 113.43 -7.37811ZM76.1848 -6.96178C69.2356 -6.48912 62.9216 -4.62686 57.4342 -1.43133C51.0941 2.26073 48.1448 6.61644 48.7747 11.3573C48.9646 12.7862 49.2721 13.7377 49.9397 14.962C53.501 21.4931 66.1547 26.1306 80.5626 26.1851C83.0661 26.1946 83.7263 26.167 85.9167 25.9613C97.0337 24.917 103.605 23.5659 109.62 21.0874C110.899 20.5601 111.307 20.2924 110.222 20.6913C109.077 21.1129 105.49 22.1624 103.55 22.6438C98.0822 24.0002 92.0131 24.9264 86.2737 25.2803C83.9441 25.424 78.9481 25.444 76.952 25.3176C69.5372 24.8484 62.7417 22.968 57.5745 19.9557C52.78 17.1606 50.5675 13.909 50.8361 10.0523C50.9256 8.76821 51.1723 7.83587 51.7067 6.76423C53.8532 2.45878 60.1681 -1.37259 68.1777 -3.22919C69.8419 -3.61497 72.549 -4.02405 74.8205 -4.23309C77.5155 -4.48107 82.1036 -4.49929 84.2748 -4.2707C91.0801 -3.55414 97.7994 -2.02782 109.261 1.40479C124.815 6.06331 130.149 7.47006 134.935 8.17638C138.46 8.69656 140.006 8.80232 144.098 8.80324C147.312 8.80399 147.814 8.78493 149.144 8.61143C152.774 8.1376 156.527 7.28906 158.684 6.45442C159.105 6.29115 159.431 6.14636 159.408 6.13263C159.384 6.1189 158.5 6.23831 157.443 6.398C153.101 7.05373 149.176 7.33633 146.523 7.18438C139.755 6.79677 130.301 4.67787 116.971 0.561073C112.442 -0.837599 106.336 -2.61548 103.692 -3.30516C96.545 -5.17017 90.3197 -6.3673 85.774 -6.75083C82.7038 -7.00988 78.3126 -7.10649 76.1848 -6.96178ZM81.8849 2.68904C78.9171 2.88767 75.8319 3.31265 73.1183 3.89648C71.2081 4.30748 67.1965 5.46974 65.3097 6.15893L63.7632 6.7237L64.3111 6.74833C64.7192 6.76664 65.2052 6.67902 66.2145 6.40516C71.5896 4.94674 77.5341 4.16951 82.3473 4.296C89.4806 4.48331 95.3919 5.77897 107.476 9.80364C116.517 12.8148 122.578 14.3316 129.035 15.1985C134.735 15.9639 138.519 15.9887 142.706 15.2885C144.866 14.9272 147.45 14.3412 149.595 13.7261C151.648 13.1376 151.66 13.1323 151.064 13.1064C150.639 13.088 150.059 13.1684 149.091 13.3797C145.976 14.0596 143.355 14.3366 140.029 14.3373C136.669 14.3381 133.563 14.0006 129.45 13.1881C124.121 12.1353 120.055 10.9875 110.331 7.79143C105.556 6.22175 102.775 5.39776 99.7413 4.65349C95.6419 3.64776 92.4459 3.0918 89.2006 2.81977C87.3224 2.66233 83.345 2.59126 81.8849 2.68904Z" fill="#EAD946"/>
</g>
<mask id="mask3_489_508" style="mask-type:alpha" maskUnits="userSpaceOnUse" x="59" y="16" width="95" height="18">
<path d="M63.1114 27.5372C63.1741 27.5717 63.9713 27.8295 64.347 28.0342C64.3196 28.253 64.2975 28.4798 64.3685 28.6716C64.4755 28.9609 65.2851 29.1158 65.6818 29.2326C66.5009 29.4739 67.6075 30.0239 67.9688 30.516C68.2428 30.8892 67.9517 31.3992 68.0169 31.7969C68.0736 32.1428 69.3769 32.4948 69.8669 32.6116C71.0337 32.8896 72.5003 33.0647 73.7465 33.168C77.2877 33.4614 80.8395 33.725 84.4303 33.6806C87.7006 33.6401 91.1455 33.3566 94.333 32.9584C96.0535 32.7435 97.7844 32.2901 99.4705 31.9882C101.67 31.5945 103.211 30.682 105.097 29.9908C108.348 28.7987 111.786 27.7777 115.187 26.7325C116.231 26.4116 117.224 26.0042 118.377 25.81C119.612 25.6019 121.122 25.3987 122.193 25.003C122.751 24.7971 123.382 24.7839 123.942 24.5887C124.301 24.4637 124.572 24.4291 124.996 24.4387C132.64 24.6119 140.268 24.8718 147.906 25.0449C148.729 25.0635 149.452 25.0887 150.242 24.9722C151.017 24.8579 150.937 24.8425 151.297 24.407C151.694 23.9267 152.219 23.5511 152.448 23.018C152.663 22.5171 153.148 21.9776 153.19 21.4652C153.277 20.4014 153.246 19.1941 151.78 18.3713C150.931 17.8951 149.586 17.5545 148.488 17.3308C146.992 17.0259 145.644 16.909 144.073 16.8734C142.44 16.8364 140.961 16.6701 139.353 16.5056C136.647 16.2287 133.308 16.1449 130.616 16.3607C128.602 16.5221 126.434 16.6573 124.512 17.0385C118.938 18.1439 113.98 19.8464 108.858 21.465C106.169 22.3146 103.487 22.8656 100.563 23.4116C96.7004 24.1329 93.0536 25.1561 89.166 25.8385C84.1913 26.7117 79.1377 26.3071 74.362 25.1214C72.7528 24.7219 71.3551 24.148 69.6546 23.8605C67.5768 23.5093 65.3122 23.3467 63.1571 23.2979C62.2253 23.2768 61.3668 23.4272 60.5158 23.5664C59.2095 23.7801 59.7092 25.192 60.1737 25.7126C60.5225 26.1036 61.0728 26.5866 61.6103 26.9043C62.0381 27.1572 62.6591 27.2877 63.1114 27.5372Z" fill="#D9D9D9"/>
</mask>
<g mask="url(#mask3_489_508)">
<path fill-rule="evenodd" clip-rule="evenodd" d="M112.347 42.0939C111.592 42.0355 110.425 41.9117 109.755 41.8189C107.418 41.4953 102.891 40.6196 103.055 40.523C103.091 40.5012 104.229 40.5665 105.582 40.6681C109.143 40.9354 111.394 40.8319 114.538 40.2565C117.007 39.8046 119.309 39.048 125.449 36.6709C134.314 33.2389 137.548 32.2328 141.364 31.7205C143.799 31.3937 146.873 31.4822 150.153 31.9736C153.921 32.5382 157.877 33.7728 160.493 35.2011C161.102 35.5333 161.143 35.5777 160.897 35.6398C160.689 35.6924 160.026 35.5152 158.122 34.8978C155.121 33.925 153.688 33.5806 151.906 33.4033C147.89 33.0038 142.58 34.0871 136.039 36.6405C134.948 37.0665 132.875 37.8764 131.433 38.4403C126.989 40.1782 124.034 41.13 121.614 41.6028C118.903 42.1324 115.305 42.3231 112.347 42.0939ZM75.7378 40.8223C68.9166 40.1712 62.7533 38.0786 57.4344 34.6077C51.2891 30.5975 48.4934 25.9681 49.2261 21.0156C49.4469 19.5228 49.7721 18.5329 50.4577 17.2653C54.1153 10.5028 66.6672 5.92825 80.8343 6.19437C83.2959 6.24059 83.9444 6.28435 86.0931 6.54899C96.9983 7.8924 103.426 9.45525 109.281 12.1868C110.527 12.7679 110.921 13.0576 109.865 12.6153C108.748 12.148 105.246 10.9679 103.35 10.4201C98.0074 8.87637 92.0624 7.76992 86.4278 7.27039C84.1408 7.06757 79.2292 6.93457 77.2636 7.02222C69.9622 7.34748 63.236 9.16502 58.0836 12.2049C53.3028 15.0256 51.0498 18.3825 51.2217 22.4289C51.279 23.7762 51.4993 24.7585 51.9991 25.8932C54.0066 30.4519 60.1237 34.6075 67.9544 36.7322C69.5814 37.1737 72.2333 37.663 74.4616 37.933C77.1054 38.2532 81.616 38.3752 83.7561 38.1845C90.4642 37.5864 97.1071 36.1381 108.458 32.7991C123.862 28.2676 129.14 26.9134 133.863 26.2808C137.341 25.815 138.864 25.7388 142.887 25.8297C146.047 25.901 146.54 25.9322 147.843 26.1438C151.401 26.7217 155.07 27.6948 157.171 28.6176C157.582 28.7981 157.899 28.9571 157.875 28.971C157.852 28.9848 156.985 28.8399 155.949 28.6489C151.696 27.8645 147.844 27.4804 145.232 27.5801C138.569 27.8343 129.223 29.8421 116.018 33.856C111.532 35.2197 105.486 36.9453 102.87 37.6085C95.7986 39.402 89.6493 40.5165 85.1708 40.8164C82.1461 41.0189 77.8263 41.0216 75.7378 40.8223ZM81.5727 30.8395C78.6596 30.5648 75.6364 30.0504 72.9823 29.3779C71.114 28.9045 67.1976 27.5968 65.359 26.8325L63.852 26.2061L64.3913 26.1926C64.793 26.1826 65.2687 26.2853 66.2545 26.5948C71.5044 28.2433 77.3304 29.1909 82.0658 29.1664C89.0837 29.1302 94.9267 27.9054 106.904 23.9601C115.865 21.0083 121.861 19.5552 128.23 18.7918C133.852 18.1179 137.573 18.1767 141.673 19.0042C143.788 19.4312 146.315 20.1031 148.409 20.7956C150.413 21.4582 150.425 21.464 149.838 21.4777C149.42 21.4875 148.851 21.3902 147.905 21.1472C144.859 20.365 142.288 20.016 139.018 19.9406C135.715 19.8645 132.653 20.1484 128.59 20.9073C123.325 21.8907 119.299 23.002 109.663 26.1322C104.93 27.6695 102.177 28.4704 99.1761 29.1821C95.1215 30.1437 91.9659 30.6545 88.7686 30.8667C86.9182 30.9895 83.006 30.9747 81.5727 30.8395Z" fill="#5C87AE"/>
</g>
<mask id="mask4_489_508" style="mask-type:alpha" maskUnits="userSpaceOnUse" x="48" y="5" width="110" height="21">
<path d="M52.353 18.3893C52.4258 18.4293 53.3523 18.7281 53.7889 18.9652C53.7571 19.2187 53.7315 19.4814 53.814 19.7036C53.9384 20.0388 54.8792 20.2183 55.3402 20.3536C56.2921 20.6332 57.5782 21.2705 57.9981 21.8406C58.3165 22.2729 57.9782 22.8637 58.054 23.3244C58.12 23.7252 59.6346 24.133 60.204 24.2683C61.5599 24.5905 63.2643 24.7935 64.7126 24.9132C68.8278 25.2534 72.9554 25.5591 77.1283 25.5079C80.9287 25.4613 84.932 25.1331 88.6361 24.6722C90.6356 24.4233 92.647 23.8982 94.6064 23.5487C97.1622 23.0927 98.9534 22.0358 101.144 21.2352C104.923 19.8545 108.918 18.672 112.87 17.4615C114.084 17.0898 115.237 16.6179 116.577 16.393C118.013 16.1521 119.767 15.9168 121.012 15.4585C121.66 15.2201 122.393 15.2048 123.045 14.9787C123.461 14.834 123.777 14.7939 124.269 14.805C133.152 15.0063 142.017 15.308 150.893 15.5092C151.849 15.5308 152.69 15.56 153.607 15.4252C154.508 15.2929 154.415 15.275 154.833 14.7704C155.295 14.2141 155.905 13.7791 156.171 13.1615C156.421 12.5812 156.985 11.9563 157.033 11.3627C157.134 10.1304 157.098 8.73181 155.394 7.77853C154.408 7.22673 152.844 6.83205 151.569 6.57288C149.83 6.21946 148.264 6.08395 146.437 6.04256C144.54 5.99955 142.821 5.80688 140.953 5.61614C137.808 5.2951 133.928 5.19778 130.799 5.44754C128.459 5.63438 125.94 5.79076 123.706 6.23228C117.228 7.51237 111.467 9.48422 105.514 11.3588C102.39 12.3428 99.2733 12.9809 95.8754 13.6132C91.3866 14.4485 87.1487 15.6335 82.6309 16.4237C76.85 17.4348 70.9771 16.9657 65.4271 15.5918C63.557 15.1288 61.9327 14.4638 59.9565 14.1306C57.5419 13.7236 54.9102 13.5351 52.4058 13.4783C51.3229 13.4538 50.3253 13.628 49.3363 13.7892C47.8183 14.0366 48.3991 15.6723 48.939 16.2755C49.3443 16.7284 49.9839 17.2879 50.6085 17.656C51.1057 17.949 51.8273 18.1003 52.353 18.3893Z" fill="#D9D9D9"/>
</mask>
<g mask="url(#mask4_489_508)">
<path fill-rule="evenodd" clip-rule="evenodd" d="M109.572 35.2596C108.694 35.1918 107.338 35.0483 106.559 34.9408C103.844 34.5657 98.5822 33.5509 98.7726 33.4389C98.8154 33.4137 100.137 33.4895 101.71 33.6073C105.848 33.9172 108.464 33.7976 112.117 33.1312C114.986 32.6078 117.662 31.7316 124.797 28.9783C135.098 25.0033 138.857 23.8381 143.291 23.245C146.121 22.8665 149.693 22.9694 153.505 23.5388C157.884 24.1932 162.481 25.6238 165.522 27.2786C166.229 27.6635 166.276 27.7149 165.991 27.7868C165.749 27.8478 164.979 27.6425 162.766 26.9271C159.278 25.7999 157.614 25.4008 155.543 25.1953C150.875 24.7321 144.705 25.9866 137.103 28.9441C135.835 29.4374 133.427 30.3755 131.751 31.0286C126.587 33.0415 123.152 34.1439 120.341 34.6914C117.19 35.3047 113.009 35.5253 109.572 35.2596ZM67.0277 33.7834C59.1008 33.0286 51.9381 30.6038 45.7568 26.5826C38.6149 21.9365 35.3657 16.5733 36.2167 10.8361C36.4733 9.1068 36.851 7.96007 37.6477 6.49167C41.8976 -1.34198 56.4838 -6.64032 72.9475 -6.33085C75.8082 -6.2771 76.5617 -6.22636 79.0588 -5.9196C91.7319 -4.36243 99.2022 -2.55141 106.006 0.613466C107.454 1.28671 107.912 1.62233 106.684 1.1099C105.387 0.568408 101.317 -0.798926 99.1139 -1.43364C92.9046 -3.22245 85.9958 -4.50473 79.4478 -5.08388C76.7901 -5.31902 71.0823 -5.4735 68.7981 -5.37213C60.3131 -4.99594 52.4967 -2.89097 46.5094 0.630149C40.9538 3.89739 38.3358 7.786 38.5359 12.4736C38.6026 14.0343 38.8587 15.1723 39.4396 16.4868C41.773 21.768 48.8821 26.5825 57.9822 29.0446C59.873 29.5562 62.9549 30.1232 65.5444 30.4362C68.6168 30.8074 73.8585 30.9491 76.3456 30.7283C84.141 30.036 91.8607 28.3588 105.051 24.4917C122.952 19.2434 129.085 17.6752 134.574 16.9427C138.616 16.4033 140.385 16.3153 145.06 16.4208C148.733 16.5037 149.306 16.5399 150.82 16.7851C154.955 17.4548 159.219 18.5825 161.66 19.6517C162.138 19.8608 162.506 20.0451 162.479 20.0611C162.452 20.0772 161.445 19.9092 160.241 19.6878C155.298 18.7788 150.821 18.3335 147.786 18.4487C140.043 18.7427 129.182 21.0678 113.837 25.7166C108.623 27.296 101.598 29.2946 98.5584 30.0627C90.3404 32.1398 83.1943 33.4304 77.9899 33.7773C74.4748 34.0117 69.4548 34.0145 67.0277 33.7834ZM73.8077 22.2194C70.4223 21.9009 66.9089 21.3047 63.8246 20.5254C61.6534 19.9768 57.1021 18.4617 54.9654 17.5761L53.2139 16.8503L53.8407 16.8347C54.3075 16.8231 54.8603 16.9421 56.0059 17.3008C62.107 19.2109 68.8775 20.3092 74.3806 20.2811C82.536 20.2398 89.3261 18.8214 103.244 14.252C113.658 10.8332 120.625 9.15037 128.027 8.26656C134.561 7.48632 138.885 7.55478 143.649 8.51377C146.108 9.00861 149.044 9.78716 151.477 10.5895C153.807 11.3574 153.821 11.364 153.138 11.3799C152.653 11.3911 151.992 11.2785 150.892 10.9968C147.352 10.0905 144.364 9.68596 140.564 9.59834C136.726 9.50985 133.167 9.83849 128.445 10.7174C122.328 11.8561 117.649 13.1432 106.451 16.7685C100.951 18.549 97.7513 19.4766 94.2644 20.3007C89.5527 21.4145 85.8856 22.0059 82.1701 22.2514C80.0197 22.3935 75.4733 22.3761 73.8077 22.2194Z" fill="#DFD474"/>
</g>
<mask id="mask5_489_508" style="mask-type:alpha" maskUnits="userSpaceOnUse" x="23" y="9" width="50" height="12">
<path d="M25.4183 16.7298C25.4511 16.7516 25.8695 16.9136 26.0664 17.0428C26.0515 17.1821 26.0393 17.3264 26.0761 17.4482C26.1317 17.6319 26.5568 17.7284 26.765 17.8017C27.1949 17.953 27.7751 18.3001 27.9638 18.6121C28.1068 18.8488 27.9525 19.1738 27.9858 19.4266C28.0147 19.6465 28.6988 19.8671 28.9561 19.9401C29.5686 20.114 30.339 20.2217 30.9938 20.2842C32.8542 20.462 34.7204 20.6207 36.6078 20.5835C38.3268 20.5495 40.1381 20.3606 41.8144 20.0994C42.7193 19.9584 43.6302 19.6657 44.5172 19.4695C45.6741 19.2136 46.4866 18.6294 47.4793 18.1851C49.1914 17.4189 51.0008 16.7609 52.7909 16.0877C53.3407 15.881 53.8636 15.6194 54.47 15.493C55.1197 15.3576 55.9138 15.2245 56.4779 14.9702C56.7714 14.8379 57.103 14.8279 57.3982 14.7023C57.5871 14.622 57.7297 14.5993 57.9526 14.6043C61.9696 14.6953 65.9783 14.8415 69.9925 14.9325C70.4246 14.9423 70.8047 14.9564 71.2201 14.8804C71.6279 14.8058 71.5856 14.7962 71.7761 14.5183C71.986 14.2118 72.263 13.9717 72.3848 13.632C72.4991 13.3129 72.7553 12.9686 72.7786 12.6427C72.8269 11.9659 72.8136 11.1982 72.0453 10.6786C71.6006 10.3778 70.8942 10.1646 70.3179 10.0251C69.5321 9.83489 68.8241 9.76393 67.9981 9.74521C67.1401 9.72577 66.3632 9.62376 65.5186 9.52315C64.097 9.35381 62.3423 9.30889 60.9267 9.45287C59.8677 9.56058 58.7282 9.65195 57.7167 9.89925C54.7843 10.6162 52.1741 11.7114 49.4778 12.7535C48.0623 13.3006 46.6514 13.6577 45.1132 14.0123C43.0811 14.4807 41.1618 15.1406 39.1168 15.5843C36.4999 16.1521 33.8447 15.9074 31.3377 15.1653C30.4929 14.9153 29.7597 14.5538 28.8667 14.3752C27.7755 14.157 26.5857 14.0593 25.4531 14.0337C24.9634 14.0226 24.5118 14.1204 24.0642 14.2111C23.377 14.3502 23.6361 15.2469 23.8789 15.5768C24.0612 15.8246 24.3493 16.1304 24.6309 16.3311C24.8552 16.4909 25.1812 16.5723 25.4183 16.7298Z" fill="#D9D9D9"/>
</mask>
<g mask="url(#mask5_489_508)">
<path fill-rule="evenodd" clip-rule="evenodd" d="M51.2591 25.8591C50.8622 25.8238 50.2494 25.748 49.8975 25.6907C48.6702 25.4908 46.2926 24.9453 46.379 24.8834C46.3984 24.8695 46.996 24.9081 47.707 24.9693C49.5779 25.1304 50.7612 25.0589 52.4151 24.685C53.714 24.3913 54.926 23.9044 58.159 22.3771C62.8269 20.1722 64.5295 19.5242 66.5364 19.1888C67.817 18.9748 69.4323 19.0233 71.1551 19.3276C73.1343 19.6771 75.2104 20.4523 76.5818 21.3541C76.9008 21.5638 76.9222 21.592 76.7928 21.6321C76.6833 21.6661 76.3355 21.5551 75.3361 21.1672C73.7614 20.5561 73.0093 20.3407 72.0732 20.2324C69.9632 19.9884 67.1695 20.6908 63.7251 22.3312C63.1505 22.6048 62.0591 23.1251 61.2998 23.4873C58.9597 24.6038 57.4039 25.2166 56.131 25.5234C54.7049 25.867 52.8134 25.9973 51.2591 25.8591ZM32.0207 25.1426C28.4371 24.7457 25.203 23.4304 22.4162 21.2364C19.1963 18.7015 17.7386 15.7644 18.1362 12.6129C18.256 11.663 18.4294 11.0326 18.7929 10.2247C20.7324 5.91476 27.3411 2.97385 34.7866 3.1074C36.0803 3.13059 36.421 3.15678 37.5497 3.31968C43.2781 4.14656 46.6527 5.12429 49.7231 6.84674C50.3763 7.21315 50.5828 7.39638 50.0286 7.11778C49.443 6.82337 47.6054 6.08171 46.6103 5.73812C43.8059 4.7698 40.6841 4.08111 37.7238 3.77762C36.5223 3.65439 33.9411 3.58218 32.9078 3.64288C29.0694 3.86813 25.5296 5.04099 22.8138 6.98725C20.2939 8.79318 19.1013 10.9337 19.1815 13.5067C19.2082 14.3634 19.3215 14.9876 19.5813 15.7079C20.625 18.6021 23.8297 21.2295 27.94 22.561C28.7941 22.8377 30.1867 23.1422 31.3572 23.3083C32.7459 23.5053 35.1164 23.5715 36.2417 23.4448C39.7689 23.0476 43.2641 22.1097 49.2383 19.9576C57.3463 17.0369 60.1236 16.1624 62.6075 15.7482C64.4368 15.4431 65.2373 15.3909 67.3515 15.4385C69.0124 15.4759 69.2715 15.4945 69.9557 15.6258C71.8243 15.9843 73.7506 16.594 74.8523 17.1756C75.0678 17.2893 75.234 17.3897 75.2217 17.3985C75.2093 17.4074 74.7541 17.3174 74.2102 17.1985C71.9766 16.7104 69.9529 16.4758 68.5799 16.5458C65.0771 16.7243 60.1598 18.0247 53.2093 20.6107C50.8479 21.4893 47.6659 22.602 46.2896 23.0303C42.5681 24.1888 39.3333 24.9131 36.9786 25.1151C35.3883 25.2515 33.1179 25.2641 32.0207 25.1426ZM35.1126 18.7791C33.5822 18.6118 31.9945 18.2922 30.6012 17.8712C29.6205 17.5748 27.5653 16.7531 26.6009 16.2716L25.8104 15.8771L26.0939 15.8671C26.305 15.8597 26.5548 15.9238 27.0721 16.1182C29.8273 17.1534 32.887 17.7414 35.376 17.7138C39.0647 17.6731 42.1388 16.8795 48.4439 14.3402C53.1611 12.4403 56.3162 11.5011 59.6657 10.9996C62.6224 10.5568 64.5782 10.5848 66.7307 11.1008C67.8415 11.367 69.1677 11.7879 70.2667 12.2231C71.3185 12.6394 71.3248 12.6431 71.0161 12.6533C70.7965 12.6605 70.4978 12.6001 70.0009 12.4479C68.4019 11.9582 67.0517 11.7427 65.3331 11.703C63.5973 11.6629 61.987 11.8512 59.8495 12.3441C57.0801 12.9827 54.9614 13.6997 49.8887 15.7146C47.3973 16.7042 45.9479 17.2205 44.369 17.6807C42.2356 18.3025 40.5757 18.6353 38.8947 18.7783C37.9218 18.861 35.8656 18.8615 35.1126 18.7791Z" fill="#E0D35A"/>
</g>
<mask id="mask6_489_508" style="mask-type:alpha" maskUnits="userSpaceOnUse" x="14" y="14" width="54" height="12">
<path d="M65.393 22.3571C65.3568 22.3733 64.8996 22.4863 64.6821 22.5823C64.6922 22.6955 64.6991 22.8127 64.6542 22.9096C64.5865 23.0557 64.1249 23.1155 63.8978 23.1658C63.4286 23.2697 62.7893 23.5254 62.5729 23.7696C62.4087 23.9548 62.5607 24.2242 62.514 24.4271C62.4734 24.6036 61.7278 24.7526 61.4478 24.8006C60.7812 24.9149 59.9477 24.9689 59.2404 24.9914C57.231 25.0553 55.2161 25.1036 53.1869 24.9925C51.3388 24.8914 49.398 24.6609 47.6056 24.3779C46.6381 24.2251 45.6706 23.9494 44.7247 23.7527C43.4909 23.4962 42.642 22.9891 41.593 22.5873C39.7839 21.8944 37.8655 21.2848 35.9684 20.6638C35.3858 20.4731 34.8345 20.2392 34.1874 20.111C33.4941 19.9736 32.6455 19.832 32.0496 19.6022C31.7395 19.4827 31.3831 19.4604 31.0709 19.3462C30.8711 19.2731 30.7186 19.2486 30.4786 19.2432C26.1525 19.1444 21.8329 19.0906 17.5098 18.992C17.0443 18.9814 16.6347 18.9766 16.1911 18.8973C15.7555 18.8194 15.8014 18.8135 15.6085 18.5806C15.3958 18.3239 15.1082 18.1179 14.9919 17.8381C14.8826 17.5752 14.6218 17.2858 14.6108 17.0213C14.5881 16.4721 14.6355 15.852 15.4847 15.4649C15.9762 15.2408 16.7454 15.0987 17.3715 15.0107C18.2253 14.8906 18.9901 14.8636 19.8796 14.8839C20.8037 14.905 21.644 14.8559 22.5571 14.8108C24.094 14.7348 25.9841 14.7738 27.501 14.9509C28.6358 15.0834 29.8579 15.2062 30.9356 15.4495C34.0599 16.1549 36.821 17.1522 39.6773 18.1104C41.1766 18.6134 42.6793 18.9627 44.3191 19.3153C46.4853 19.7811 48.522 20.3969 50.7032 20.8434C53.4944 21.4146 56.3619 21.3307 59.0915 20.8383C60.0113 20.6724 60.8157 20.4116 61.7843 20.3055C62.9678 20.176 64.2523 20.148 65.472 20.1758C65.9994 20.1879 66.4811 20.2864 66.9589 20.3788C67.6922 20.5208 67.3747 21.2346 67.0992 21.491C66.8923 21.6834 66.5692 21.9183 66.2574 22.0685C66.0093 22.188 65.655 22.2399 65.393 22.3571Z" fill="#D9D9D9"/>
</mask>
<g mask="url(#mask6_489_508)">
<path fill-rule="evenodd" clip-rule="evenodd" d="M37.1949 28.631C37.6236 28.6195 38.2862 28.5846 38.6673 28.5534C39.9965 28.4446 42.5781 28.1059 42.4879 28.0521C42.4676 28.04 41.8229 28.0456 41.0553 28.0645C39.0353 28.1142 37.7651 28.0055 36.0016 27.6321C34.6167 27.3388 33.3336 26.893 29.9206 25.5192C24.9929 23.5358 23.1888 22.9387 21.0438 22.5812C19.6752 22.3531 17.935 22.3229 16.0682 22.4947C13.9236 22.6921 11.6565 23.2296 10.142 23.8996C9.78974 24.0554 9.76556 24.0772 9.90301 24.1152C10.0194 24.1474 10.3984 24.0726 11.4905 23.8021C13.2111 23.3758 14.0296 23.234 15.0414 23.1867C17.3223 23.0803 20.298 23.7682 23.9336 25.2426C24.54 25.4885 25.6919 25.9561 26.4934 26.2816C28.9633 27.2849 30.6109 27.8472 31.9673 28.15C33.4871 28.4892 35.5166 28.6759 37.1949 28.631ZM57.926 28.8793C61.7989 28.7126 65.3354 27.7884 68.4283 26.1346C72.0019 24.2238 73.6967 21.912 73.4045 19.347C73.3164 18.5739 73.157 18.0568 72.8005 17.3881C70.8991 13.8203 63.9148 11.1584 55.8978 10.9461C54.5048 10.9092 54.1371 10.9157 52.9156 10.9988C46.7165 11.4209 43.0433 12.0662 39.6655 13.3266C38.947 13.5947 38.7169 13.734 39.3252 13.5326C39.9679 13.3197 41.9771 12.7992 43.0626 12.5642C46.1217 11.902 49.5104 11.4796 52.7086 11.3616C54.0067 11.3136 56.7871 11.3663 57.8964 11.4598C62.0167 11.807 65.7751 12.9075 68.6134 14.5978C71.2471 16.1662 72.4382 17.948 72.2413 20.0247C72.1757 20.7161 72.0269 21.2159 71.7164 21.787C70.4689 24.0819 66.9077 26.0682 62.4277 26.9678C61.4969 27.1548 59.9854 27.341 58.7188 27.4249C57.2161 27.5245 54.6627 27.476 53.4573 27.3252C49.6791 26.8523 45.9588 25.9438 39.6231 23.9469C31.0248 21.2368 28.0741 20.4104 25.4193 19.9687C23.4642 19.6434 22.605 19.5667 20.3281 19.5142C18.5394 19.473 18.2598 19.4769 17.518 19.5536C15.492 19.7631 13.3932 20.1731 12.1827 20.5959C11.9459 20.6786 11.7628 20.7525 11.7757 20.7602C11.7886 20.7679 12.2822 20.7148 12.8726 20.6421C15.2969 20.3435 17.4845 20.2409 18.9588 20.3566C22.7201 20.6516 27.955 21.9144 35.3224 24.3041C37.8255 25.1159 41.2013 26.1523 42.6638 26.5579C46.6182 27.6545 50.0677 28.3792 52.5925 28.6438C54.2978 28.8225 56.7402 28.9304 57.926 28.8793ZM54.8728 23.6018C56.5268 23.5324 58.2489 23.3423 59.7661 23.0619C60.8341 22.8645 63.0808 22.2886 64.1392 21.9408L65.0068 21.6558L64.7021 21.6356C64.4753 21.6205 64.2037 21.6616 63.6387 21.7965C60.6297 22.5149 57.3122 22.8586 54.6353 22.7292C50.6681 22.5376 47.3945 21.7638 40.7196 19.4397C35.7257 17.7008 32.3713 16.8058 28.7889 16.2562C25.6266 15.7711 23.5209 15.7096 21.1827 16.0341C19.976 16.2016 18.531 16.4848 17.3298 16.7893C16.1801 17.0807 16.1733 17.0833 16.5049 17.1049C16.7409 17.1202 17.0649 17.0842 17.6061 16.9825C19.3476 16.6554 20.8097 16.5393 22.6606 16.5811C24.5301 16.6233 26.2545 16.8448 28.5333 17.3353C31.4856 17.9707 33.7345 18.6415 39.1059 20.4887C41.744 21.3959 43.2814 21.8756 44.9604 22.3156C47.2292 22.9101 49.0009 23.2505 50.8035 23.4384C51.8467 23.5472 54.0591 23.636 54.8728 23.6018Z" fill="#296195"/>
</g>
<mask id="mask7_489_508" style="mask-type:alpha" maskUnits="userSpaceOnUse" x="9" y="2" width="139" height="31">
<path d="M142.147 24.48C142.052 24.5267 140.853 24.8528 140.283 25.1289C140.309 25.4531 140.326 25.7886 140.208 26.0663C140.03 26.4853 138.819 26.6589 138.224 26.8043C136.994 27.1046 135.317 27.8403 134.748 28.5407C134.317 29.072 134.714 29.8426 134.59 30.424C134.483 30.9297 132.528 31.3605 131.794 31.4995C130.046 31.8305 127.861 31.9898 126.008 32.0582C120.741 32.2523 115.46 32.4018 110.143 32.0949C105.3 31.8155 100.214 31.1663 95.5183 30.3656C92.9835 29.9335 90.4495 29.1493 87.9715 28.5913C84.7394 27.8636 82.5173 26.416 79.7702 25.2712C75.0329 23.297 70.0084 21.5621 65.04 19.7942C63.5141 19.2512 62.0705 18.5845 60.3753 18.2209C58.5592 17.8315 56.336 17.4306 54.7753 16.7759C53.9632 16.4352 53.0293 16.3733 52.2117 16.0481C51.6886 15.84 51.289 15.7707 50.66 15.7563C39.3226 15.4977 28.002 15.3675 16.6725 15.109C15.4527 15.0812 14.3793 15.0696 13.217 14.845C12.0759 14.6246 12.1963 14.6073 11.692 13.9416C11.136 13.2075 10.3831 12.6191 10.0799 11.8185C9.795 11.0662 9.11306 10.2391 9.08583 9.48167C9.02929 7.9091 9.15707 6.13305 11.3846 5.01977C12.674 4.37536 14.6909 3.96418 16.3322 3.70857C18.5705 3.36002 20.5752 3.27847 22.9063 3.33166C25.328 3.38692 27.5305 3.24153 29.9239 3.10728C33.9523 2.88132 38.9056 2.98241 42.8802 3.48122C45.8534 3.85435 49.0558 4.19911 51.8787 4.88989C60.0631 6.89265 67.294 9.73339 74.7744 12.4615C78.7011 13.8936 82.6375 14.8854 86.933 15.8862C92.6077 17.2082 97.9421 18.9603 103.656 20.2267C110.968 21.8472 118.484 21.591 125.64 20.1658C128.052 19.6855 130.162 18.9342 132.701 18.6251C135.803 18.2475 139.17 18.1603 142.366 18.2333C143.748 18.2648 145.01 18.5441 146.262 18.8064C148.183 19.2089 147.347 21.2547 146.624 21.9903C146.08 22.5426 145.232 23.217 144.414 23.6488C143.763 23.9925 142.834 24.143 142.147 24.48Z" fill="#D9D9D9"/>
</mask>
<g mask="url(#mask7_489_508)">
<path fill-rule="evenodd" clip-rule="evenodd" d="M68.2104 42.5907C69.3338 42.5555 71.0705 42.4519 72.0696 42.3605C75.5537 42.0415 82.3217 41.0571 82.0854 40.9037C82.0323 40.8692 80.3427 40.8887 78.3308 40.9471C73.0365 41.1006 69.7081 40.7964 65.0885 39.7367C61.4606 38.9046 58.1001 37.635 49.1629 33.7199C36.2592 28.0674 31.5344 26.3674 25.9148 25.3555C22.3291 24.7099 17.7685 24.633 12.8751 25.1354C7.25343 25.7128 1.30866 27.2644 -2.66411 29.1915C-3.58828 29.6398 -3.65178 29.7023 -3.29175 29.8104C-2.98677 29.9019 -1.99313 29.6857 0.870412 28.9048C5.38227 27.6744 7.52823 27.2638 10.1803 27.1229C16.1586 26.8054 23.9535 28.7591 33.4735 32.9609C35.0616 33.6619 38.078 34.9945 40.1765 35.9222C46.6442 38.7816 50.9591 40.3828 54.5125 41.2423C58.4935 42.2052 63.8116 42.7287 68.2104 42.5907ZM122.541 43.187C132.692 42.6882 141.966 40.0218 150.081 35.2687C159.457 29.7769 163.912 23.1472 163.16 15.8036C162.934 13.5902 162.519 12.1103 161.588 10.1971C156.625 -0.00940355 138.335 -7.59344 117.325 -8.15705C113.675 -8.255 112.711 -8.2343 109.509 -7.98946C93.26 -6.74641 83.6298 -4.8782 74.7702 -1.25001C72.8856 -0.478203 72.2817 -0.0781512 73.8772 -0.658253C75.5628 -1.27128 80.8312 -2.77309 83.6775 -3.45197C91.6985 -5.36526 100.582 -6.59388 108.965 -6.94955C112.367 -7.09401 119.654 -6.95862 122.56 -6.69696C133.357 -5.72544 143.201 -2.59487 150.63 2.22982C157.524 6.70664 160.636 11.8027 160.108 17.7507C159.932 19.7311 159.54 21.163 158.723 22.8004C155.441 29.3792 146.096 35.0869 134.35 37.6881C131.91 38.2286 127.947 38.7704 124.627 39.0177C120.688 39.311 113.997 39.1865 110.838 38.7612C100.939 37.428 91.1937 34.8468 74.6003 29.1635C52.0806 21.4504 44.3519 19.1001 37.3965 17.8498C32.2743 16.9291 30.0231 16.7143 24.056 16.5767C19.3685 16.4686 18.6357 16.4813 16.6911 16.7051C11.3801 17.3162 5.87717 18.5019 2.70244 19.7193C2.0814 19.9575 1.60094 20.1703 1.63481 20.1923C1.66848 20.2143 2.96258 20.0593 4.51027 19.8478C10.8655 18.9794 16.5993 18.6735 20.4626 18.9965C30.3187 19.8204 44.0315 23.4078 63.3268 30.2101C69.8824 32.5212 78.7241 35.4705 82.5547 36.6237C92.9124 39.7422 101.949 41.7984 108.565 42.5421C113.033 43.0444 119.433 43.3397 122.541 43.187ZM114.569 28.0908C118.904 27.8827 123.418 27.329 127.396 26.5175C130.196 25.9462 136.088 24.2845 138.863 23.2828L141.139 22.4619L140.341 22.4056C139.746 22.3637 139.034 22.4829 137.553 22.8723C129.663 24.9461 120.966 25.9488 113.951 25.5933C103.555 25.0666 94.9798 22.8687 77.499 16.2501C64.4204 11.2983 55.6342 8.75372 46.2483 7.19981C37.9631 5.82804 32.4449 5.66368 26.3151 6.60599C23.1517 7.09218 19.3629 7.91134 16.2132 8.78995C13.1985 9.63075 13.1804 9.63844 14.0494 9.69826C14.668 9.74079 15.5172 9.63595 16.9362 9.34181C21.5022 8.39533 25.3348 8.05467 30.1853 8.16419C35.0846 8.27482 39.6029 8.8995 45.5724 10.2914C53.3064 12.0947 59.1966 14.003 73.2637 19.2631C80.1728 21.8465 84.1992 23.2118 88.5972 24.4623C94.5401 26.1522 99.1814 27.1173 103.905 27.6454C106.638 27.9511 112.436 28.1932 114.569 28.0908Z" fill="#A6E0DD"/>
</g>
<mask id="mask8_489_508" style="mask-type:alpha" maskUnits="userSpaceOnUse" x="29" y="21" width="63" height="11">
<path d="M89.5727 28.9209C89.5298 28.9355 88.9872 29.0363 88.7294 29.123C88.7421 29.2269 88.751 29.3343 88.6983 29.4229C88.6187 29.5565 88.0706 29.6084 87.801 29.6532C87.2442 29.7456 86.4861 29.976 86.2305 30.1986C86.0365 30.3674 86.2188 30.6153 86.1646 30.8011C86.1174 30.9627 85.2323 31.0947 84.9 31.1369C84.1086 31.2376 83.1185 31.282 82.2782 31.2982C79.8909 31.3444 77.497 31.3761 75.0852 31.2617C72.8885 31.1575 70.5809 30.9342 68.4494 30.6636C67.2987 30.5175 66.1475 30.2587 65.0223 30.0725C63.5546 29.8297 62.5427 29.3594 61.2937 28.9845C59.1399 28.338 56.8565 27.7673 54.5984 27.1861C53.905 27.0076 53.2484 26.7897 52.4787 26.6682C51.6541 26.5379 50.6449 26.4028 49.9353 26.1885C49.5661 26.0769 49.1425 26.0543 48.7708 25.9476C48.533 25.8794 48.3516 25.856 48.0664 25.8495C42.9252 25.7322 37.7921 25.6561 32.6546 25.5389C32.1015 25.5263 31.6148 25.5193 31.0871 25.4439C30.569 25.3698 30.6236 25.3646 30.3929 25.1499C30.1386 24.9132 29.7955 24.7225 29.6556 24.4653C29.5241 24.2235 29.2124 23.9566 29.1977 23.714C29.1673 23.2103 29.2198 22.6421 30.2264 22.2924C30.8091 22.09 31.7223 21.9645 32.4657 21.8876C33.4794 21.7828 34.3881 21.7628 35.4452 21.7869C36.5433 21.812 37.5415 21.7721 38.6262 21.7364C40.452 21.6763 42.6981 21.7238 44.5017 21.8956C45.8509 22.0241 47.3039 22.1442 48.5859 22.374C52.3027 23.0401 55.5898 23.9716 58.9897 24.8679C60.7744 25.3384 62.5621 25.6679 64.5128 26.0014C67.0897 26.4419 69.5136 27.0191 72.1082 27.442C75.4284 27.9831 78.8351 27.9239 82.0755 27.4894C83.1674 27.3429 84.1217 27.1088 85.272 27.0175C86.6775 26.906 88.2036 26.8884 89.6531 26.9215C90.2799 26.9358 90.8529 27.029 91.4211 27.1168C92.2933 27.2515 91.9205 27.904 91.5947 28.1373C91.3501 28.3125 90.9676 28.5259 90.5981 28.6617C90.304 28.7697 89.8833 28.8151 89.5727 28.9209Z" fill="#D9D9D9"/>
</mask>
<g mask="url(#mask8_489_508)">
<path fill-rule="evenodd" clip-rule="evenodd" d="M56.1053 34.5015C56.6146 34.4937 57.4017 34.4658 57.8544 34.4395C59.433 34.348 62.4986 34.0534 62.391 34.0036C62.3668 33.9924 61.6009 33.9934 60.6889 34.006C58.2889 34.0391 56.7789 33.9315 54.6812 33.5782C53.0338 33.3008 51.5063 32.884 47.4423 31.6033C41.5746 29.7542 39.4273 29.1955 36.8763 28.8545C35.2485 28.6369 33.1806 28.5984 30.9635 28.7443C28.4164 28.9121 25.7258 29.3908 23.9304 29.9958C23.5127 30.1365 23.4841 30.1563 23.6477 30.192C23.7862 30.2223 24.2361 30.156 25.532 29.9147C27.574 29.5345 28.5457 29.4096 29.7477 29.3725C32.4572 29.289 35.9974 29.9383 40.3265 31.3126C41.0486 31.5418 42.4203 31.9777 43.3746 32.2811C46.3157 33.2163 48.2769 33.7421 49.8906 34.0281C51.6985 34.3485 54.1113 34.5323 56.1053 34.5015ZM80.7405 34.8577C85.3414 34.7288 89.5379 33.9033 93.2029 32.4061C97.4373 30.6762 99.4369 28.5671 99.0738 26.2135C98.9643 25.5041 98.7717 25.029 98.344 24.4136C96.0626 21.1305 87.7469 18.6466 78.2194 18.4023C76.564 18.3598 76.1271 18.3635 74.6762 18.4322C67.3126 18.7808 62.952 19.3496 58.9462 20.4844C58.0941 20.7258 57.8215 20.852 58.5431 20.6711C59.3055 20.48 61.6896 20.0152 62.978 19.8064C66.6089 19.2182 70.6329 18.8519 74.4324 18.7635C75.9746 18.7276 79.2787 18.7931 80.5974 18.8857C85.4956 19.2296 89.9682 20.2619 93.3514 21.8293C96.4905 23.2836 97.9169 24.9248 97.6958 26.8276C97.6221 27.4612 97.4485 27.9184 97.083 28.4403C95.6149 30.5367 91.3956 32.3358 86.0779 33.1329C84.973 33.2986 83.1781 33.46 81.6736 33.5291C79.8885 33.611 76.8542 33.5508 75.4209 33.405C70.9286 32.948 66.5023 32.0919 58.9616 30.2218C48.7279 27.6837 45.2165 26.9077 42.0592 26.4862C39.734 26.1758 38.7127 26.1002 36.0068 26.038C33.8812 25.9891 33.549 25.991 32.668 26.0567C30.2618 26.2362 27.7705 26.5991 26.3347 26.9793C26.0539 27.0536 25.8367 27.1203 25.8521 27.1274C25.8675 27.1346 26.4537 27.0889 27.1548 27.0259C30.0336 26.7672 32.6323 26.6867 34.3849 26.8018C38.8561 27.0956 45.0844 28.2859 53.8535 30.5226C56.8327 31.2825 60.8505 32.2537 62.5908 32.6346C67.2964 33.6646 71.3997 34.3504 74.4015 34.6087C76.4289 34.7831 79.3318 34.8971 80.7405 34.8577ZM77.0799 29.9999C79.0448 29.9464 81.0899 29.7828 82.891 29.5351C84.1588 29.3607 86.8248 28.8466 88.0804 28.5343L89.1095 28.2784L88.7474 28.2579C88.4777 28.2427 88.1553 28.2787 87.4848 28.3989C83.9138 29.0389 79.9739 29.3335 76.7922 29.1983C72.0771 28.9981 68.1824 28.2682 60.2366 26.0959C54.2918 24.4707 50.3004 23.6292 46.0402 23.1031C42.2795 22.6387 39.7771 22.5693 37.0008 22.8524C35.5679 22.9984 33.8526 23.2492 32.4272 23.5209C31.0629 23.781 31.0548 23.7834 31.4489 23.8052C31.7295 23.8207 32.1143 23.7897 32.7567 23.6998C34.824 23.4107 36.5607 23.3133 38.7602 23.3631C40.9819 23.4134 43.0324 23.6272 45.7431 24.091C49.2551 24.6919 51.9315 25.3208 58.3255 27.0478C61.4659 27.896 63.2956 28.3453 65.2935 28.7591C67.9931 29.3182 70.1004 29.6414 72.2435 29.8248C73.4838 29.931 76.1132 30.0262 77.0799 29.9999Z" fill="url(#paint1_linear_489_508)"/>
</g>
<g filter="url(#filter0_d_489_508)">
<path fill-rule="evenodd" clip-rule="evenodd" d="M42.5385 9.21599C41.7538 9.33376 40.6123 9.52052 40.0019 9.6313L38.8922 9.83251L38.9004 12.7729C38.9172 18.7992 39.1858 30.7486 39.3061 30.8233C39.3748 30.8657 39.9923 30.9439 40.6784 30.997C41.7701 31.0814 42.8646 30.9798 44.5599 30.6368L44.9958 30.5486V26.8176V23.0863L45.7223 23.1348L46.4485 23.1833L47.4495 25.0906C47.9999 26.1395 48.8228 27.713 49.2779 28.5872C50.6391 31.2012 50.3086 30.9539 52.2811 30.8338C53.7052 30.7471 56.6422 30.2508 56.8011 30.0701C56.8469 30.0179 55.9729 28.5853 53.4517 24.5804C52.1752 22.5526 51.9278 21.9913 52.311 21.9913C52.5913 21.9913 54.1792 20.5742 54.6878 19.8704C55.2822 19.0479 55.7763 17.3569 55.7763 16.146C55.7763 12.4612 53.6797 10.0944 49.5628 9.13223C48.5659 8.89923 44.3133 8.94993 42.5385 9.21599ZM123.774 9.02558C123.737 9.06262 123.101 9.1691 122.361 9.26224C120.765 9.46314 118.929 9.80009 118.819 9.91214C118.736 9.99669 118.959 23.1073 119.125 27.9792L119.224 30.8678L120.432 30.9813C121.503 31.0819 123.29 30.9271 124.541 30.6254L124.898 30.5394V26.813V23.0863L125.651 23.1348C126.398 23.1828 126.408 23.1912 126.891 24.1369C127.159 24.6614 127.709 25.705 128.113 26.4561C128.518 27.2071 129.197 28.4945 129.623 29.317L130.398 30.8123L132.03 30.7853C133.52 30.7608 136.101 30.379 136.595 30.1101C136.742 30.03 136.565 29.6328 135.948 28.6578C135.481 27.9196 134.394 26.178 133.533 24.7873L131.967 22.2591L132.356 22.0107C132.571 21.8741 133.246 21.2595 133.858 20.6451C135.311 19.1846 135.599 18.4331 135.599 16.1106C135.599 14.0824 135.27 12.9655 134.337 11.8292C133.1 10.3233 132.232 9.8457 129.416 9.12285C128.814 8.96821 123.916 8.88381 123.774 9.02558ZM59.6605 9.52767C57.5892 9.92787 57.0868 10.1855 57.5006 10.6351C57.6528 10.8004 58.23 11.827 59.0349 13.364C59.3196 13.9075 59.6841 14.5512 59.845 14.7944C60.0057 15.0374 60.2768 15.5225 60.4471 15.8722C60.6175 16.2218 60.8815 16.6932 61.0339 16.9199C61.1862 17.1464 61.5505 17.7901 61.8435 18.3503C62.4631 19.5352 62.7992 20.1314 62.9104 20.2429C62.954 20.2867 63.196 20.7158 63.4482 21.1966C63.7004 21.6774 64.0215 22.2853 64.1616 22.5475C64.3687 22.9349 64.4314 23.7548 64.4958 26.9183L64.5751 30.8123L65.601 30.9585C66.5485 31.0936 69.3074 30.8845 69.9771 30.6268C70.1636 30.555 70.2031 29.9014 70.2031 26.8775V23.2151L70.8373 22.1124C71.186 21.5059 71.4714 20.9788 71.4714 20.941C71.4714 20.9033 71.6385 20.6056 71.8429 20.2795C72.0471 19.9535 72.5571 19.043 72.9761 18.2562C73.3951 17.4695 73.7913 16.7543 73.8564 16.6668C73.9216 16.5794 74.1697 16.1503 74.4078 15.7132C74.6461 15.2761 75.4026 13.9112 76.0891 12.6799C76.7756 11.4486 77.3373 10.3723 77.3373 10.288C77.3373 9.89783 74.0927 9.23761 72.5184 9.30722C71.7474 9.34139 71.3874 9.42595 71.2967 9.5941C71.2262 9.72523 70.3761 11.4596 69.4081 13.4483C68.4399 15.4371 67.5858 17.0642 67.5102 17.0642C67.4346 17.0642 67.271 16.8676 67.1467 16.6271C66.2995 14.9878 65.0638 12.636 64.4121 11.4219C63.9899 10.6351 63.5684 9.83108 63.4756 9.63511C63.3203 9.30722 63.2052 9.28004 62.0385 9.2961C61.3409 9.30547 60.2708 9.40974 59.6605 9.52767ZM23.3878 9.59776C22.7079 9.66277 21.8232 9.80803 21.422 9.92072L20.6924 10.1256L20.8179 12.9989C20.8871 14.5792 20.9869 19.2326 21.0399 23.3397L21.1361 30.8072L21.7703 30.9198C22.9929 31.1369 24.6507 31.0409 26.566 30.6421L26.9227 30.5679V26.7564V22.9449H30.8676H34.8126L34.9082 22.5873C35.0323 22.1227 35.0323 18.6811 34.9082 18.2165L34.8126 17.8589H30.8676H26.9227V16.1106V14.3622H31.4205H35.9184L36.0303 13.0761C36.0918 12.3688 36.0926 11.2602 36.032 10.6126L35.922 9.43517L30.2731 9.45742C27.1661 9.46966 24.0676 9.53275 23.3878 9.59776ZM78.4434 10.5697C78.2694 11.6034 78.3148 13.0219 78.5532 14.0046C78.6395 14.36 78.6582 14.3622 81.6926 14.3622H84.7452L84.8476 19.5675C84.9039 22.4302 84.9942 26.1443 85.0483 27.8206L85.1468 30.8686L86.3435 30.9809C87.3927 31.0795 89.5856 30.8961 90.5354 30.6302C90.7949 30.5575 90.8128 30.0315 90.8128 22.4574V14.3622H93.8972H96.9813L97.1044 13.7662C97.2629 12.9981 97.2629 10.7993 97.1044 10.0312L96.9813 9.43517H87.8078H78.6342L78.4434 10.5697ZM102.371 9.59522C101.709 9.65895 100.79 9.80787 100.329 9.92628L99.4908 10.1416L99.597 11.4176C99.6801 12.416 99.9682 25.5785 100.001 29.8984L100.008 30.7328H107.834H115.66L115.761 29.9954C115.89 29.0503 115.89 27.3293 115.761 26.3843L115.66 25.6468H110.682H105.704L105.749 24.0972L105.795 22.5475L109.996 22.4681L114.197 22.3886V20.084V17.7794L109.956 17.7371L105.715 17.6947V16.0285V14.3622H110.45H115.184L115.285 13.6248C115.414 12.681 115.414 11.1164 115.285 10.1726L115.184 9.43517L109.38 9.45742C106.187 9.46966 103.033 9.53164 102.371 9.59522ZM48.3741 14.1939C48.5651 14.268 48.8998 14.4853 49.1178 14.6766C49.4875 15.0013 49.5141 15.1247 49.5141 16.5081C49.5141 17.3239 49.4663 18.0393 49.4078 18.0979C49.1784 18.3279 48.0164 18.4872 46.5416 18.4908L44.9958 18.4946V16.2806C44.9958 14.1135 45.0035 14.0649 45.3526 13.9884C45.8343 13.8832 47.9419 14.0264 48.3741 14.1939ZM128.621 14.3371C129.521 14.8619 129.876 16.2045 129.473 17.554C129.373 17.8873 129.177 18.21 129.037 18.2708C128.897 18.3316 127.908 18.4155 126.84 18.4571L124.898 18.5329V16.2997C124.898 14.113 124.906 14.0649 125.255 13.9878C125.973 13.8296 128.135 14.0541 128.621 14.3371Z" fill="white"/>
</g>
<defs>
<filter id="filter0_d_489_508" x="15.6924" y="3.95312" width="135.951" height="42.0781" filterUnits="userSpaceOnUse" color-interpolation-filters="sRGB">
<feFlood flood-opacity="0" result="BackgroundImageFix"/>
<feColorMatrix in="SourceAlpha" type="matrix" values="0 0 0 0 0 0 0 0 0 0 0 0 0 0 0 0 0 0 127 0" result="hardAlpha"/>
<feOffset dx="5" dy="5"/>
<feGaussianBlur stdDeviation="5"/>
<feComposite in2="hardAlpha" operator="out"/>
<feColorMatrix type="matrix" values="0 0 0 0 0.101961 0 0 0 0 0.117647 0 0 0 0 0.282353 0 0 0 0.6 0"/>
<feBlend mode="normal" in2="BackgroundImageFix" result="effect1_dropShadow_489_508"/>
<feBlend mode="normal" in="SourceGraphic" in2="effect1_dropShadow_489_508" result="shape"/>
</filter>
<linearGradient id="paint0_linear_489_508" x1="106.879" y1="14.8203" x2="106.879" y2="48.4289" gradientUnits="userSpaceOnUse">
<stop stop-color="#3BA3C3"/>
<stop offset="1" stop-color="#3BA3C3"/>
</linearGradient>
<linearGradient id="paint1_linear_489_508" x1="61.1946" y1="34.6393" x2="61.5738" y2="18.0217" gradientUnits="userSpaceOnUse">
<stop stop-color="#296195"/>
<stop offset="1" stop-color="#2C7ECA"/>
</linearGradient>
</defs>
</svg>
